/* XPM */
static char * 1_xpm[] = {
"48 48 541 2",
"  	c #297E37",
". 	c #2C803A",
"+ 	c #2E823C",
"@ 	c #2E843D",
"# 	c #30863F",
"$ 	c #30853F",
"% 	c #2B813A",
"& 	c #297F38",
"* 	c #2A7F39",
"= 	c #2D833C",
"- 	c #2D7F39",
"; 	c #643D33",
"> 	c #5D4F35",
", 	c #2C823B",
"' 	c #2F853E",
") 	c #2A8039",
"! 	c #328841",
"~ 	c #348A43",
"{ 	c #4E6436",
"] 	c #653731",
"^ 	c #65352E",
"/ 	c #4E6335",
"( 	c #2B803A",
"_ 	c #2D823C",
": 	c #318740",
"< 	c #338942",
"[ 	c #2F843D",
"} 	c #2B8039",
"| 	c #2C813A",
"1 	c #2E833D",
"2 	c #2C813B",
"3 	c #496A38",
"4 	c #707756",
"5 	c #C3AD9D",
"6 	c #A48063",
"7 	c #91704A",
"8 	c #4D6436",
"9 	c #7E6A42",
"0 	c #9F724E",
"a 	c #C6AB9C",
"b 	c #9A8E78",
"c 	c #4D6435",
"d 	c #318640",
"e 	c #92776A",
"f 	c #FBE6D1",
"g 	c #CEA882",
"h 	c #B6895C",
"i 	c #673832",
"j 	c #387939",
"k 	c #673D32",
"l 	c #9F724F",
"m 	c #C69666",
"n 	c #FFE5D1",
"o 	c #C7AC9D",
"p 	c #64382E",
"q 	c #2D823B",
"r 	c #277D36",
"s 	c #91786A",
"t 	c #FBE5D0",
"u 	c #FBE3CF",
"v 	c #F2D6C0",
"w 	c #C18F5A",
"x 	c #7E543D",
"y 	c #5F4B33",
"z 	c #30813C",
"A 	c #32803C",
"B 	c #317E3A",
"C 	c #317F3B",
"D 	c #33813D",
"E 	c #317F3A",
"F 	c #535E35",
"G 	c #683E32",
"H 	c #C08E5C",
"I 	c #E3C0A4",
"J 	c #FEE4D1",
"K 	c #FFE5D2",
"L 	c #C6AC9D",
"M 	c #63382E",
"N 	c #287E37",
"O 	c #5D5035",
"P 	c #92786B",
"Q 	c #FBE5D1",
"R 	c #FCE4D0",
"S 	c #F4D8C2",
"T 	c #C3905A",
"U 	c #7D513C",
"V 	c #63342F",
"W 	c #62312F",
"X 	c #63322F",
"Y 	c #64322F",
"Z 	c #63312F",
"` 	c #63332F",
" .	c #663931",
"..	c #C18F5C",
"+.	c #E4C1A5",
"@.	c #FFE5D3",
"#.	c #F6E8DF",
"$.	c #C0AEA7",
"%.	c #92796C",
"&.	c #FCE6D2",
"*.	c #FDE4D0",
"=.	c #F4D8C1",
"-.	c #C28F5A",
";.	c #B88859",
">.	c #BA8859",
",.	c #CA945F",
"'.	c #B68657",
").	c #B68658",
"!.	c #C9935E",
"~.	c #C08D5B",
"{.	c #C2905D",
"].	c #E3C1A5",
"^.	c #ECEBEB",
"/.	c #B8B0AF",
"(.	c #64382D",
"_.	c #2F843E",
":.	c #30853E",
"<.	c #2F833D",
"[.	c #2E833C",
"}.	c #5E4F35",
"|.	c #8B7B76",
"1.	c #EAEDEC",
"2.	c #EDCCAE",
"3.	c #E6BC92",
"4.	c #C2905C",
"5.	c #C7935F",
"6.	c #CB9661",
"7.	c #DAA066",
"8.	c #C3915E",
"9.	c #C4925E",
"0.	c #C89460",
"a.	c #D9A066",
"b.	c #D19A63",
"c.	c #C4915E",
"d.	c #DAAD81",
"e.	c #EFC59E",
"f.	c #B9B0B0",
"g.	c #297E38",
"h.	c #2B7E38",
"i.	c #30843D",
"j.	c #2D813B",
"k.	c #85726E",
"l.	c #D6D8D8",
"m.	c #D8B596",
"n.	c #D6A87B",
"o.	c #C1905D",
"p.	c #D59D65",
"q.	c #C2905E",
"r.	c #C7945F",
"s.	c #DAA166",
"t.	c #D09A63",
"u.	c #CF9F71",
"v.	c #DAAD83",
"w.	c #D7D6D5",
"x.	c #AAA1A0",
"y.	c #64392E",
"z.	c #2B7F39",
"A.	c #2C7F39",
"B.	c #2D803A",
"C.	c #2E813B",
"D.	c #30833D",
"E.	c #5D5336",
"F.	c #7C6963",
"G.	c #BDBFBF",
"H.	c #C19A77",
"I.	c #C6935F",
"J.	c #D89F66",
"K.	c #D8A066",
"L.	c #CC9761",
"M.	c #D59E65",
"N.	c #C39261",
"O.	c #BDBCBB",
"P.	c #998F8D",
"Q.	c #643C2F",
"R.	c #2D813A",
"S.	c #2F823C",
"T.	c #347939",
"U.	c #663B38",
"V.	c #C79460",
"W.	c #CE9962",
"X.	c #6C4239",
"Y.	c #51653A",
"Z.	c #2C8039",
"`.	c #2E803A",
" +	c #2E803B",
".+	c #307D3A",
"++	c #C18F5D",
"@+	c #693C32",
"#+	c #4F6436",
"$+	c #2D803B",
"%+	c #33803D",
"&+	c #C9935F",
"*+	c #DAA36C",
"=+	c #D9A169",
"-+	c #D9A067",
";+	c #D79F65",
">+	c #D49C64",
",+	c #6A3C33",
"'+	c #2D813C",
")+	c #2C803B",
"!+	c #2C7F3A",
"~+	c #2E823D",
"{+	c #2B803B",
"]+	c #D99F65",
"^+	c #E0B590",
"/+	c #FEFDFC",
"(+	c #F0DED2",
"_+	c #DAA470",
":+	c #E7C7AF",
"<+	c #FFFFFF",
"[+	c #6A3D33",
"}+	c #2C813C",
"|+	c #2A7F3A",
"1+	c #287D38",
"2+	c #297E39",
"3+	c #2C823C",
"4+	c #2F843F",
"5+	c #2D823D",
"6+	c #2B7F3A",
"7+	c #2E823E",
"8+	c #2D813D",
"9+	c #2B803C",
"0+	c #2E833E",
"a+	c #2C813D",
"b+	c #327F3D",
"c+	c #D89D5F",
"d+	c #F9F3EF",
"e+	c #E1B896",
"f+	c #2A7F3B",
"g+	c #287D39",
"h+	c #2D823E",
"i+	c #2F8440",
"j+	c #297E3A",
"k+	c #2F853F",
"l+	c #2E833F",
"m+	c #2D813E",
"n+	c #367C3C",
"o+	c #DFB38D",
"p+	c #E1B795",
"q+	c #E1B895",
"r+	c #DBA571",
"s+	c #E1B794",
"t+	c #506438",
"u+	c #2E843F",
"v+	c #308541",
"w+	c #7B7876",
"x+	c #61312B",
"y+	c #D09961",
"z+	c #C5915C",
"A+	c #CA9661",
"B+	c #C6925D",
"C+	c #C9945E",
"D+	c #6A3C32",
"E+	c #726E65",
"F+	c #358143",
"G+	c #2C823D",
"H+	c #2F833F",
"I+	c #7C7876",
"J+	c #5D251D",
"K+	c #C89057",
"L+	c #D99E61",
"M+	c #9C7043",
"N+	c #000000",
"O+	c #45362B",
"P+	c #9F7549",
"Q+	c #C6935E",
"R+	c #D49D64",
"S+	c #CE9862",
"T+	c #A1754A",
"U+	c #725539",
"V+	c #5D4125",
"W+	c #DB9F62",
"X+	c #D79C5F",
"Y+	c #643020",
"Z+	c #746B65",
"`+	c #378044",
" @	c #2C803C",
".@	c #7F7F7E",
"+@	c #BEBCBB",
"@@	c #F6EFEB",
"#@	c #E8E0DA",
"$@	c #D7BDAA",
"%@	c #C5915B",
"&@	c #B48453",
"*@	c #00000D",
"=@	c #B2865B",
"-@	c #D69E65",
";@	c #C5925F",
">@	c #C29262",
",@	c #262220",
"'@	c #916A42",
")@	c #C6925C",
"!@	c #CDA481",
"~@	c #E8E0DB",
"{@	c #F5EDE8",
"]@	c #DCD9D9",
"^@	c #7D7A7A",
"/@	c #397E45",
"(@	c #308640",
"_@	c #2A7E3B",
":@	c #808180",
"<@	c #CDCDCD",
"[@	c #EFF0F0",
"}@	c #E8D6C9",
"|@	c #E4D2C4",
"1@	c #E9E8E8",
"2@	c #B3875B",
"3@	c #BD8C5C",
"4@	c #B0814F",
"5@	c #E1DBD7",
"6@	c #E7E0DC",
"7@	c #E0B692",
"8@	c #E4C4AB",
"9@	c #FCFCFC",
"0@	c #EEEEEE",
"a@	c #7F7E7F",
"b@	c #3A7F45",
"c@	c #2E843E",
"d@	c #2F8540",
"e@	c #FBFBFB",
"f@	c #F3F3F3",
"g@	c #192125",
"h@	c #151F24",
"i@	c #111D23",
"j@	c #121E24",
"k@	c #DEDFDF",
"l@	c #F7F7F8",
"m@	c #397F45",
"n@	c #2B813B",
"o@	c #2D833D",
"p@	c #287C38",
"q@	c #C3C3C3",
"r@	c #F0F0F0",
"s@	c #D5D5D5",
"t@	c #040404",
"u@	c #0A0A0A",
"v@	c #1C1C1C",
"w@	c #ACACAC",
"x@	c #F2F2F2",
"y@	c #DFDFDF",
"z@	c #807E7F",
"A@	c #397F44",
"B@	c #267B37",
"C@	c #758177",
"D@	c #B3B6B3",
"E@	c #DDDDDD",
"F@	c #FDFDFD",
"G@	c #FAFAFA",
"H@	c #DEDEDE",
"I@	c #666666",
"J@	c #FEFEFE",
"K@	c #E2E2E2",
"L@	c #CDCECE",
"M@	c #757F76",
"N@	c #30823E",
"O@	c #2B7F3C",
"P@	c #607F64",
"Q@	c #838383",
"R@	c #EBEBEB",
"S@	c #F7F7F7",
"T@	c #F1F1F1",
"U@	c #A6A6A6",
"V@	c #A8A8A8",
"W@	c #D9D9D9",
"X@	c #EDEDED",
"Y@	c #9C9C9C",
"Z@	c #747F76",
"`@	c #2A803A",
" #	c #536A43",
".#	c #6E504C",
"+#	c #9D9C9C",
"@#	c #A1A1A1",
"##	c #A7A7A7",
"$#	c #F4F4F4",
"%#	c #ECECEC",
"&#	c #EFEFEF",
"*#	c #BABABA",
"=#	c #A3A3A3",
"-#	c #9E9F9F",
";#	c #786461",
">#	c #635A47",
",#	c #683D36",
"'#	c #A0A0A0",
")#	c #B1B1B1",
"!#	c #9F9F9F",
"~#	c #A5A6A6",
"{#	c #755B57",
"]#	c #5E4D33",
"^#	c #297F3A",
"/#	c #6C453F",
"(#	c #F7F8F8",
"_#	c #EAEAEA",
":#	c #7D7D7D",
"<#	c #797979",
"[#	c #7A7A7A",
"}#	c #757575",
"|#	c #DCDCDC",
"1#	c #F0F1F1",
"2#	c #968482",
"3#	c #6A3E35",
"4#	c #DFB593",
"5#	c #EFDDD0",
"6#	c #E5E5E5",
"7#	c #F9F9F9",
"8#	c #F7F0EC",
"9#	c #E2B793",
"0#	c #896351",
"a#	c #297D38",
"b#	c #D79E64",
"c#	c #E9CDB9",
"d#	c #F9F1EC",
"e#	c #F5F5F5",
"f#	c #FAF3EF",
"g#	c #F3E4DA",
"h#	c #DA9F61",
"i#	c #86593F",
"j#	c #D79D60",
"k#	c #D89C5D",
"l#	c #EAE9E8",
"m#	c #E0B48F",
"n#	c #D89B5A",
"o#	c #DA9F60",
"p#	c #86583D",
"q#	c #287C39",
"r#	c #2C803D",
"s#	c #6B413B",
"t#	c #E6DDD8",
"u#	c #E8DFD9",
"v#	c #E9E2DE",
"w#	c #EBE3DD",
"x#	c #FBF3EE",
"y#	c #927C77",
"z#	c #297F39",
"A#	c #277B37",
"B#	c #267936",
"C#	c #348844",
"D#	c #328642",
"E#	c #308440",
"F#	c #2F833E",
"G#	c #30843F",
"H#	c #E9E5E2",
"I#	c #F1EFEE",
"J#	c #FAF3ED",
"K#	c #2A7D39",
"L#	c #338743",
"M#	c #328541",
"N#	c #30833F",
"O#	c #2D833E",
"P#	c #D79C5E",
"Q#	c #E2CAB8",
"R#	c #EBEDED",
"S#	c #FCFDFD",
"T#	c #F9F2ED",
"U#	c #D99B58",
"V#	c #308540",
"W#	c #2A803B",
"X#	c #2B813C",
"Y#	c #2F823E",
"Z#	c #DBA97B",
"`#	c #DDB490",
" $	c #FBFAFA",
".$	c #E6C7AF",
"+$	c #2B7F3B",
"@$	c #2D803C",
"#$	c #2E813D",
"$$	c #2E823F",
"%$	c #FFFEFE",
"&$	c #F2F3F3",
"*$	c #DBA167",
"=$	c #2B7E3A",
"-$	c #297D3A",
";$	c #EDD6C5",
">$	c #EDD7C7",
",$	c #EDD6C6",
"'$	c #EDD7C8",
")$	c #DDAC80",
"!$	c #2B7E39",
"~$	c #2D7F3B",
"{$	c #D89F64",
"]$	c #2A7E3A",
"^$	c #2E813E",
"/$	c #2F813E",
"($	c #2E813C",
"_$	c #9F714C",
":$	c #81563E",
"<$	c #C4925F",
"[$	c #2C7F3B",
"}$	c #9D704C",
"|$	c #653931",
"1$	c #4F6336",
"2$	c #624432",
"3$	c #7F533D",
"4$	c #2F823D",
"5$	c #643A31",
"6$	c #277C38",
"7$	c #2A7D37",
"8$	c #287C37",
"9$	c #297D39",
"0$	c #2C7E39",
"a$	c #2A7E38",
"b$	c #297C36",
"c$	c #2A7E39",
"d$	c #277B38",
"e$	c #2A8139",
"f$	c #2D7E3B",
"g$	c #6E775E",
"h$	c #907B78",
"i$	c #E0B694",
"j$	c #DFB591",
"k$	c #DCB18C",
"l$	c #B78759",
"m$	c #926E48",
"n$	c #5D4E33",
"o$	c #257A36",
"p$	c #575935",
"q$	c #765B3C",
"r$	c #B68556",
"s$	c #D6AA85",
"t$	c #DDB38F",
"u$	c #E2B895",
"v$	c #A2887D",
"w$	c #82796E",
"x$	c #65332D",
"y$	c #BBB3B2",
"z$	c #F8F9F9",
"A$	c #EBECED",
"B$	c #693D3C",
"C$	c #4D6336",
"D$	c #5F1C1B",
"E$	c #DBDADA",
"F$	c #F1F2F3",
"G$	c #DDDBDA",
"H$	c #631E1D",
"I$	c #2E803C",
"J$	c #8D7977",
"K$	c #958280",
"L$	c #917E7C",
"M$	c #8C7976",
"N$	c #397A3C",
"O$	c #8F7B79",
"P$	c #958380",
"  . + @ # $ % & * % = = - ; ; > # , , @ ' = = = % ) , @ ! ~ # { ] ^ / ) ( _ ' : ' ' ! < : ' @ [ ",
"} | 1 $ : # = _ = 2 | 3 4 5 6 7 8 % % @ # = @ ' , % , @ ' @ { 9 0 a b c 2 2 = ' ' @ # @ , , | % ",
", , @ d : # ' $ $ , % > e f g h i j % @ $ = @ # = , = = % & k l m n o p , % % = = q , & r ) & r ",
"( , = [ ' # : # 1 , = > s t u v w x y z A B C D C C C E F G H I J K L M % , , , % % % N r % ) N ",
"| 2 % ) | @ : # ' $ # O P Q R S T U V W X Y Y Y Y Y Y Z `  ...+.@.#.$.p = @ @ , , = = % % @ @ = ",
", % ) N & , # # # : : > %.&.*.=.-.;.>.,.>.'.'.'.'.'.).!.~.).{.].K ^./.(.' ' _.% = ' ' @ @ ' # : ",
"% % % )   * [ :.<.+ [.}.|.1.2.3.4.5.6.7.6.5.8.8.9.0.0.a.b.c.8.d.e.^.f.(.d # = g.) @ @ q % ( q [ ",
") ) ) *   h.+ i.<.j.2 O k.l.m.n.o.p.a.a.a.p.q.8.r.s.a.a.a.t.8.u.v.w.x.y.: # = g.( @ @ = 2 } . j.",
") ) ) z.A.B.C.D.D.B.2 E.F.G.H.I.p.J.a.a.a.K.L.c.M.a.a.a.a.a.p.L.N.O.P.Q.# ' = ( q ' @ @ [.R.B.B.",
"= = _ 1 D.D.S.S.S.z.} ( T.U.).V.a.a.a.a.a.a.a.a.a.a.a.a.a.a.a.W.{.X.Y.' # @ , , [.@ ' @ [.R.Z.h.",
"= , , 1 D.S.`. +C.z.( , .+X ~.t.a.a.a.a.a.a.a.a.a.a.a.a.a.a.a.W.++@+#+' ' @ ' # ' @ @ = | j.B.A.",
"2 2 2 _ $+A.A.B.$+. | = %+W &+a.a.a.*+=+a.a.a.a.a.a.a.-+*+-+a.;+>+,+#+@ = @ $ # _.= 1 2 ) '+j.B.",
"% = _.1 )+z.!+'+~++ )+{+%+Z &+a.]+^+/+(+_+a.a.a.a.a.-+:+<+:+-+a.;+[+#+}+}+2 |+1+2+3+4+5+|+5+'+6+",
") @ d _.7+8+9+8+0+8+}+a+b+Z &+a.c+d+<+<+e+a.a.a.a.a.*+<+<+<+*+a.;+[+#+f+f+9+9+g+f+h+i+h+9+a+9+j+",
") @ d k+i+l+9+m+i+h+h+0+n+W &+a.]+o+p+q+r+a.a.a.a.a.-+s+p+s+-+a.;+[+t+f+f+8+l+a+h+l+l+h+a+a+f+j+",
", @ ' k+u+h+9+h+v+v+i+h+w+x+&+a.y+z+A+s.a.a.a.a.a.a.a.7.t.B+C+a.;+D+E+F+h+l+l+a+a+h+h+h+h+a+9+9+",
"@ ' # 1 G+a+f+a+l+7+H+i+I+J+K+L+M+N+O+P+Q+b.a.a.a.R+S+T+U+N+V+W+X+Y+Z+`+a+h+a+a+a+h+h+l+h+a+h+h+",
"' d : 5+9+9+f+9+ @j+m+v+.@+@@@#@$@%@&@*@=@c.b.a.-@;@>@,@'@)@!@~@{@]@^@/@{+a+a+a+a+h+l+h+h+a+h+l+",
"(@(@4+0+a+9+9+a+m+_@a+v+:@<@<+[@}@s+s+|@1@2@3@5.8.4@5@6@7@p+8@[@9@0@a@b@}+0+c@}+{+9+h+h+h+a+9+9+",
"d@4+7+h+a+9+a+h+m+9+a+l+:@<@<+<+<+<+<+e@f@g@h@i@j@N+k@l@<+<+<+<+<+0@a@m@n@o@c@_ 9+9+h+h+h+h+f+p@",
"h+8+a+9+9+9+a+a+ @a+a+h+:@q@r@<+<+<+<+<+<+s@t@u@v@w@e@<+<+<+<+<+x@y@z@A@% , = 5+a+a+a+h+l+l+f+B@",
"h+a+f+j+j+j+j+j+f+f+h+i+C@D@E@e@F@<+<+<+<+G@H@I@s@f@<+<+<+<+J@9@K@L@M@N@, = 1 _ }+9+9+a+h+h+O@g+",
"l+h+9+f+ @a+f+f+9+f+h+v+l+P@Q@R@S@<+<+<+<+T@U@w@V@W@<+<+<+<+F@X@Y@Z@`@, = [ ' = {+f+9+a+a+h+a+9+",
"h+h+h+8+H+i+5+a+a+{+a+l+0+ #.#+#@###J@<+<+J@$#%#&#J@<+<+<+*#=#-#;#>#g.% @ ' @ 3+|+|+9+a+5+h+h+h+",
"f+9+a+a+h+c@c@0+5+{+n@5+1 #+,#=#@#'#%#0@0@0@X@X@X@0@0@0@&#)#!#~#{#]#g.N , , ) & 2+^#n@5+0+h+l+i+",
"h+m+h+l+c@o@= 1 1 n@`@% , #+/#<+(#_#:#<#[#[#[#[#[#[#[#[#}#|#1#<+2#]#& ) ' @ % & ) , = k+(@u+i+v+",
"i+l+7+0+_.@ , = ' , % % % #+3#4#5#e@0@6#|#|#|#|#|#|#|#y@0@7#8#9#0#]#) = < ! = % , @ @ # : c@u+i+",
"9+h+a+a#% ' = = 1 = ' ' ) #+[+b#c#d#e@e#&#&#&#&#&#&#&#x@<+f#g#h#i#]#, = : : @ , , @ , = = }+a+h+",
"j+9+a+`@( , , 1 1 2 , = % #+D+j#k#c+l#e#<+<+<+<+<+<+<+<+<+m#n#o#p#]#, % = @ [ = [.@ = = _ |+g+q#",
"r#a+5+0+n@& , @ 1 2 ) ) , #+s#t#u##@e@F@<+<+<+<+<+<+<+9@&#v#w#x#y#]#, z#) , @ [.[.o@= @ 1 * A#B#",
"C#D#E#l+{+`@4+$ F#G#0+_ 0+#+s#t#H#R@e@F@<+<+<+<+<+<+<+e@_#0@I#J#y#]#1 3+5+3+3+2 ( `@{+5+0+}+6+K#",
"L#M#N#N#7+a+h+ @9+H+0+O#i+#+D+P#Q#R#_#e#<+<+<+<+<+<+<+9@_#S#T#U#p#]#5+O#V#0+W#f+9+X#9+h+l+}+6+K#",
"Y#Y#Y#N#H+h+O@j+j+r#a+a+l+#+[+;+Z#`# $e#&#<+<+<+<+<+x@T@S#.$o+s.i#]#9+ @v+7+j+f+a+7+a+h+l++$K#K#",
"@$#$#$8+8+h+l+$$7+m+r#O@O@#+[+;+a.*+%$(#[@<+<+<+<+<+&$&$<+p+a.*$i#]#O@g+9+9+f+j+f+a+a+a+ @K#=$@$",
"=$@$#$ @9+a+l+i+H+a+O@_@-$#+[+;+a.=+;$>$>$,$,$,$,$,$>$>$'$)$a.*$i#]#m+f+a+h+a+f+j+f+h+h+a+ @#$Y#",
"!$~$#$ @+$+$h+7+8++$f+f+j+#+[+;+a.a.{${$b#b#b#b#b#b#b#b#{$a.a.*$i#]#H+l+l+i+l++$]${+0+l+7+^$/$Y#",
"$+($#$@$9+ @H+8+f+j+{+_ }+#+[+;+a.a.9._$@+[+[+[+[+[+[+:$<$p.a.*$i#]#h+}+( {+{+)+5+F#0+8+ @[$[$=$",
"($S.S.'+ @a+H+a+j+( 2 _ _ #+[+;+a.a.9.}$|$1$#+#+#+{ 2$3$<$p.a.*$i#]#2 ( ( _ 1 2 '+4$j.. [$'+[$]$",
"C.C.C.)+ @a+h+9+2+{+2 , _ #+[+;+a.a.9.}$5$@ _ % , , ]#3$<$p.a.*$i#]#} ) , ' :.q . B.A.h.A.~+8+f+",
"B.A.h.a#2+f+9+j+6$1+z#% _ #+[+;+a.a.9.}$5$= = = @ = ]#3$<$p.a.*$i#]#& & ) % q q B.A.h.7$7$'+8+9+",
"h.h.7$8$9$j+j+j+g+1+`@= @ #+[+;+a.a.9.}$5$, = ' ' = ]#3$<$p.a.*$i#]#, = % % , q A.7$A.A.B.($5+a+",
"h.0$0$a#j+f+j+f+f+^#3+' $ #+[+;+a.a.9.}$5$, @ c@@ 3+]#3$<$p.a.*$i#]#@ # o@q q q a$b$B.S.4$~+5+h+",
"6+. $+( {+n@|+{+}+`@3+k+4+#+[+;+a.a.9.}$5$1 3+% n@}+]#3$<$p.a.*$i#]#3+c@_ }+}+}+6+c$)+'+'+ @8+$$",
"A#p@c${+2 ( g.`@n@z#{+h+}+#+[+;+a.a.9.}$5$5+W#1+2+{+]#3$<$p.a.*$i#]#( }+{+9+a+5+}++$+${+ @f+_@_@",
"B@d$2+}+_ % & & ( * {+}+j+#+[+;+a.a.9.}$5$f+g+B@6$f+]#3$<$p.a.*$i#]#|+f+f+O@a+h+a+f+g+j+9+f+j+g+",
"H+l+l+4+k+@ % e$% }+a+a+f$g$h$i$j$k$l$m$n$g+o$o$B@f+p$q$r$s$t$u$v$w${+a+O@O@9+f+j+p@B@g+f+9+a+a+",
"i+l+h+0+_ , % % 2 }+}+9+x$y$[@<+z$A$B$C$h+g+B@6$]$9+a+0+D$E$F$<+&$G$H$h+9+r#a+9+f+j+j+_@f+9+r#m+",
"h+a+f+{+z#N ) % , {+|+f+I$g$J$K$L$M$N$i+$$j+g+f+h+a+f+5+_ w$O$P$O$w$h+h+9+a+7+a+9+9+a+9+9+j+f+9+"};
