/* XPM */
static char * bg_xpm[] = {
"48 48 173 2",
"  	c #297E37",
". 	c #2C803A",
"+ 	c #2E823C",
"@ 	c #2E843D",
"# 	c #30863F",
"$ 	c #30853F",
"% 	c #2B813A",
"& 	c #297F38",
"* 	c #2A7F39",
"= 	c #2D833C",
"- 	c #2A8039",
"; 	c #328841",
"> 	c #2C823B",
", 	c #2F853E",
"' 	c #348A43",
") 	c #2B803A",
"! 	c #2D823C",
"~ 	c #318740",
"{ 	c #338942",
"] 	c #2F843D",
"^ 	c #2B8039",
"/ 	c #2C813A",
"( 	c #2E833D",
"_ 	c #2C813B",
": 	c #318640",
"< 	c #2F843E",
"[ 	c #2D823B",
"} 	c #277D36",
"| 	c #287E37",
"1 	c #2E833C",
"2 	c #30853E",
"3 	c #2F833D",
"4 	c #30843E",
"5 	c #297E38",
"6 	c #2B7E38",
"7 	c #30843D",
"8 	c #2D813B",
"9 	c #30833D",
"0 	c #31843E",
"a 	c #328640",
"b 	c #328540",
"c 	c #2F823C",
"d 	c #2F833C",
"e 	c #31853E",
"f 	c #2B7F39",
"g 	c #2C7F39",
"h 	c #2D803A",
"i 	c #2E813B",
"j 	c #31853F",
"k 	c #30823D",
"l 	c #2F813C",
"m 	c #32853F",
"n 	c #348741",
"o 	c #2D813A",
"p 	c #287D37",
"q 	c #2C7E39",
"r 	c #358842",
"s 	c #2A7D37",
"t 	c #2C8039",
"u 	c #2E803A",
"v 	c #2E803B",
"w 	c #2E823B",
"x 	c #32843E",
"y 	c #30823C",
"z 	c #2D7F39",
"A 	c #2D7F3A",
"B 	c #2D803B",
"C 	c #338640",
"D 	c #31843F",
"E 	c #2B813B",
"F 	c #2D813C",
"G 	c #2C803B",
"H 	c #2C7F3A",
"I 	c #2E823D",
"J 	c #2B803B",
"K 	c #2F843F",
"L 	c #2C813C",
"M 	c #297E39",
"N 	c #2F833E",
"O 	c #30833E",
"P 	c #2B7F3A",
"Q 	c #2B7E3A",
"R 	c #2A7F3A",
"S 	c #2E833E",
"T 	c #287D38",
"U 	c #2C823C",
"V 	c #2D823D",
"W 	c #2E823E",
"X 	c #2D813D",
"Y 	c #2B803C",
"Z 	c #2C813D",
"` 	c #2E833F",
" .	c #287D39",
"..	c #308440",
"+.	c #2F833F",
"@.	c #2B7F3B",
"#.	c #2A7F3B",
"$.	c #2D823E",
"%.	c #2F8440",
"&.	c #297E3A",
"*.	c #2F853F",
"=.	c #2D813E",
"-.	c #2F8340",
";.	c #2E843F",
">.	c #308541",
",.	c #318542",
"'.	c #318642",
").	c #2C823D",
"!.	c #2C803C",
"~.	c #2C803D",
"{.	c #2B7F3C",
"].	c #308640",
"^.	c #2A7E3B",
"/.	c #328743",
"(.	c #2E843E",
"_.	c #2F8540",
":.	c #318541",
"<.	c #2E823F",
"[.	c #297F39",
"}.	c #2D833D",
"|.	c #287C38",
"1.	c #308441",
"2.	c #267B37",
"3.	c #2A803A",
"4.	c #308641",
"5.	c #297F3A",
"6.	c #318741",
"7.	c #328842",
"8.	c #348943",
"9.	c #297D38",
"0.	c #298038",
"a.	c #287C39",
"b.	c #318641",
"c.	c #277B37",
"d.	c #267936",
"e.	c #348844",
"f.	c #328642",
"g.	c #30843F",
"h.	c #2A7D39",
"i.	c #297D39",
"j.	c #2C7F3B",
"k.	c #338743",
"l.	c #328541",
"m.	c #30833F",
"n.	c #2D833E",
"o.	c #2D803C",
"p.	c #2F823E",
"q.	c #308540",
"r.	c #2A803B",
"s.	c #2B813C",
"t.	c #2C7F3C",
"u.	c #2E813D",
"v.	c #2C7E3B",
"w.	c #2E803D",
"x.	c #2F823F",
"y.	c #2F813E",
"z.	c #2D7F3C",
"A.	c #297D3A",
"B.	c #30823F",
"C.	c #2A7E3A",
"D.	c #2B7E39",
"E.	c #2D7F3B",
"F.	c #2E813E",
"G.	c #2E813C",
"H.	c #2A7E39",
"I.	c #2F823D",
"J.	c #277C38",
"K.	c #287C37",
"L.	c #2A7E38",
"M.	c #297C36",
"N.	c #277B38",
"O.	c #2A8139",
"P.	c #257A36",
"  . + @ # $ % & * % = = - - = ; # > > @ , = = = % - > @ ; ' # > - > > - ) ! , ~ , , ; { ~ , @ ] ",
"^ / ( $ ~ # = ! = _ / > ! ! ! , @ % % @ # = @ , > % > @ , @ > ) % = = > _ _ = , , @ # @ > > / % ",
"> > @ : ~ # , $ $ > % > $ < ! > % % % @ $ = @ # = > = = % & & - > @ @ = > % % = = [ > & } - & } ",
") > = ] , # ~ # ( > = , # , = = % - % ( @ / = , = = = > > > = > _ > > > % > > > % % % | } % - | ",
"/ _ % - / @ ~ # , $ # ~ ~ , = , > - > ( = % > , @ @ @ = = @ @ = = @ @ = = @ @ > > = = % % @ @ = ",
"> % - | & > # # # ~ ~ ~ ~ @ = $ 1 % ( @ ! % [ , , , , @ = ! ! = @ ] < , , , < % = , , @ @ , # ~ ",
"% % % -   * ] 2 3 + 1 @ # = % [ [ 1 $ 4 + . ! 2 ] ( [ % & | - [ = % / @ : # = 5 - @ @ [ % ) [ ] ",
"- - - *   6 + 7 3 8 _ = = = ! ] ] 9 0 a b c d e 0 7 + ^   | * = @ > > @ ~ # = 5 ) @ @ = _ ^ . 8 ",
"- - - f g h i 9 9 h _ > - % @ j 0 k l m n m 0 0 9 9 c . * - / @ # , @ , # , = ) [ , @ @ 1 o h h ",
"= = ! ( 9 9 c c c f ^ ) p * [ 1 d i q h 0 r m h s s 6 f / ! @ $ : < @ , # @ > > 1 @ , @ 1 o t 6 ",
"= > > ( 9 c u v i f ) > ) % > 1 w i 9 c c x y z g A h h / / = @ @ = @ , , @ , # , @ @ = / 8 h g ",
"_ _ _ ! B g g h B . / = < = % 3 + c C D B A A h c k k + . * % % E ! ( @ = @ $ # < = ( _ - F 8 h ",
"% = < ( G f H F I + G J K L M ! N O I B G F B P Q G I 3 _ R L E J S ( L L _ R T M U K V R V F P ",
"- @ : < W X Y X S X L Z ` J  .W ..W R P X +.S X @.@.X +.X #.L Y J L Y #.#.Y Y  .#.$.%.$.Y Z Y &.",
"- @ : *.%.` Y =.%.$.$.S $.#.&.-.%.Z &.@.W %...%.` Z Z +.$.Y L Z Z #.#.#.#.X ` Z $.` ` $.Z Z #.&.",
"> @ , *.;.$.Y $.>.>.%.$.Z Y Z ` ` $.#.Y $.` %.,.'.` Y Z Z Z Y ` %.Z Y Z $.` ` Z Z $.$.$.$.Z Y Y ",
"@ , # ( ).Z #.Z ` W +.%.Z Y Y Z $.$.Y $.%.X !.Z $.Z Y Z ` ` $.` %.` Y #.Z $.Z Z Z $.$.` $.Z $.$.",
", : ~ V Y Y #.Y !.&.=.>.` Z Y ~.=.Z Z ` ..{. . .#.#.#.` %.%.%.` ` ` Y  .J Z Z Z Z $.` $.$.Z $.` ",
"].].K S Z Y Y Z =.^.Z >.'./.'.` Z Y @.Z $.#.Y $.` !.#.=.Z Y ` ` $.S L R L S (.L J Y $.$.$.Z Y Y ",
"_.K W $.Z Y Z $.=.Y Z ` %.'.'.` Z Y !.` %.$.$.%.:.<.#.#.#.Y ` ` =.L R [.E }.(.! Y Y $.$.$.$.#.|.",
"$.X Z Y Y Y Z Z !.Z Z $.$.` %.Z Y Y Z %.>.` $.$.1.<.{.&.#.Z ` <.~.R 5 & % > = V Z Z Z $.` ` #.2.",
"$.Z #.&.&.&.&.&.#.#.$.%.` %.>.` Z #.#.#.&.&. . .#.Y Z X !.#.#.#.#.M 3.> > = ( ! L Y Y Z $.$.{. .",
"` $.Y #.!.Z #.#.Y #.$.>.` %.>.` $.$.Z #. . . .&.&.Y $.+.W ~.!.@.&.T 3.> = ] , = J #.Y Z Z $.Z Y ",
"$.$.$.X +.%.V Z Z J Z ` S ` K ` ` ` %.$.#.#.Y Z #.Y ` %.%.+.<.X @.M 5 % @ , @ U R R Y Z V $.$.$.",
"#.Y Z Z $.(.(.S V J E V ( V S K V !.K K S $.<.<.Y Y $.K 4.].Z }.K _ 5 | > > - & M 5.E V S $.` %.",
"$.=.$.` (.}.= ( ( E 3.% > % ) ! _ ) (.].6.4.%.$.&.#.Z K 7.7.U }., % & - , @ % & - > = *.].;.%.>.",
"%.` W S < @ > = , > % % % & & % % % = , ~ : %.$.#.#.Y S 7.8.] = = - - = { ; = % > @ @ # ~ (.;.%.",
"Y $.Z 9.% , = = ( = , , - & % _ % - % % > L $.%.>.W Y L $ ; ; , > > > = ~ ~ @ > > @ > = = L Z $.",
"&.Y Z 3.) > > ( ( _ > = % > > - & 0.- % U E L ` %.` $.K ].~ # = % = > % = @ ] = 1 @ = = ! R  .a.",
"~.Z V S E & > @ ( _ - - > @ ( * & * - = , ! J @.Y X +.b.: , = E > @ > [.- > @ 1 1 }.= @ ( * c.d.",
"e.f...` J 3.K $ N g.S ! S (.S S ! ) * ! < G h.|.i.j.I W V U _ }.*.K ( U V U U _ ) 3.J V S L P h.",
"k.l.m.m.W Z $.!.Y +.S n.%.` $.S F P G F F o.j.Q h.j.p.+.W Y L K :.` V n.q.S r.#.Y s.Y $.` L P h.",
"p.p.p.m.+.$.{.&.&.~.Z Z ` $.Z X t.j.u.o.v.w.p.u.o.u.m.l.%.Z Z ` %.$.Y !.>.W &.#.Z W Z $.` @.h.h.",
"o.u.u.X X $.` <.W =.~.{.{.#.@.X x.m.y.z.j.u.p.p.m.m.....%.` ` !.@.$.{. .Y Y #.&.#.Z Z Z !.h.Q o.",
"Q o.u.!.Y Z ` %.+.Z {.^.A.Y W X p.B.o.o.w.u.p.m.p.p.u.W ` ` $.#.C.` =.#.Z $.Z #.&.#.$.$.Z !.u.p.",
"D.E.u.!.@.@.$.W X @.#.#.&.$.>.X !.o.j.u.N F I N u.G G X $.V Z Y !.+.+.` ` %.` @.C.J S ` W F.y.p.",
"B G.u.o.Y !.+.X #.&.J ! L W K F C.H.! < g.N F _ F F F F L s.s.n.K +.$.L ) J J G V N S X !.j.j.Q ",
"G.c c F !.Z +.Z &.) _ ! ! S < ! * * ( , , < ! ) > ! _ P ) _ > }.(.( _ ) ) ! ( _ F I.8 . j.F j.C.",
"i i i G !.Z $.Y M J _ > ! (., ( > % @ , @ @ ! % > > ) 5 - = > > > > ^ - > , 2 [ . h g 6 g I X #.",
"h g 6 9.M #.Y &.J.T [.% ! @ , 1 = = = = = = = = @ = % - > @ = = > - & & - % [ [ h g 6 s s F X Y ",
"6 6 s K.i.&.&.&. .T 3.= @ @ = = = > % % % > = , , = % % > = % % % % > = % % > [ g s g g h G.V Z ",
"6 q q 9.&.#.&.#.#.5.U , $ ( E > > _ - - % > @ (.@ U % % > > - & - > @ # }.[ [ [ L.M.h c I.I V $.",
"P . B ) J E R J L 3.U *.K V E L L _ 3.3.E ( U % E L E 3.> = > % - - U (.! L L L P H.G F F !.X <.",
"c.|.H.J _ ) 5 3.E [.J $.L J r.Y Y J J r.J V r.T M J L 3.3.% _ > > * ) L J Y Z V L @.@.J !.#.^.^.",
"2.N.M L ! % & & ) * J L &.&.#.Y #.#.Y Y #.#. .2.J.#.V s.% % _ = = P R #.#.{.Z $.Z #. .&.Y #.&. .",
"+.` ` K *.@ % O.% L Z Z #.#.Y #.#.Y $.$.Z  .P.P.2.#.S (., , @ ( > 3.J Z {.{.Y #.&.|.2. .#.Y Z Z ",
"%.` $.S ! > % % _ L L Y ~.$.$.!.#.Y $.%.$. .2.J.C.Y Z S (.< , , }.E Z $.Y ~.Z Y #.&.&.^.#.Y ~.=.",
"$.Z #.J [.| - % > J R #.Z %.%.$.Y Y $.%.<.&. .#.$.Z #.V ! _ , # , V $.$.Y Z W Z Y Y Z Y Y &.#.Y "};
