/* XPM */
static char * bg1_xpm[] = {
"48 48 870 2",
"  	c #464C47",
". 	c #49504B",
"+ 	c #8C968E",
"@ 	c #87918A",
"# 	c #404641",
"$ 	c #646B66",
"% 	c #425543",
"& 	c #314334",
"* 	c #1E4123",
"= 	c #4D584F",
"- 	c #5E6660",
"; 	c #576259",
"> 	c #425D45",
", 	c #5E6C60",
"' 	c #7E8580",
") 	c #7E8680",
"! 	c #6C746E",
"~ 	c #767E78",
"{ 	c #606C63",
"] 	c #5B655D",
"^ 	c #5D645F",
"/ 	c #464D48",
"( 	c #4C534E",
"_ 	c #8E9991",
": 	c #89948C",
"< 	c #424843",
"[ 	c #626A63",
"} 	c #4C594E",
"| 	c #2D4131",
"1 	c #1C4020",
"2 	c #4A584C",
"3 	c #5D655F",
"4 	c #576359",
"5 	c #425D44",
"6 	c #5B6C5E",
"7 	c #7D857F",
"8 	c #7C847E",
"9 	c #6E7670",
"0 	c #737C76",
"a 	c #616C64",
"b 	c #5A645C",
"c 	c #5B635D",
"d 	c #484E49",
"e 	c #545B55",
"f 	c #919B93",
"g 	c #848E86",
"h 	c #3A3F3B",
"i 	c #6B736C",
"j 	c #313632",
"k 	c #444B46",
"l 	c #7D867F",
"m 	c #333834",
"n 	c #404541",
"o 	c #7A837D",
"p 	c #707A72",
"q 	c #464D47",
"r 	c #454C47",
"s 	c #29452B",
"t 	c #043F10",
"u 	c #344F38",
"v 	c #556558",
"w 	c #666E68",
"x 	c #435646",
"y 	c #465849",
"z 	c #104119",
"A 	c #4A5A4C",
"B 	c #454B46",
"C 	c #303531",
"D 	c #808882",
"E 	c #7F8781",
"F 	c #3C413D",
"G 	c #778079",
"H 	c #6E7770",
"I 	c #464C48",
"J 	c #2B4830",
"K 	c #053E0F",
"L 	c #2B4C2F",
"M 	c #576559",
"N 	c #656E67",
"O 	c #455748",
"P 	c #415644",
"Q 	c #14431C",
"R 	c #475749",
"S 	c #414642",
"T 	c #303631",
"U 	c #818A83",
"V 	c #7A837C",
"W 	c #393E3A",
"X 	c #343835",
"Y 	c #768078",
"Z 	c #404642",
"` 	c #3B403B",
" .	c #7D8780",
"..	c #95A198",
"+.	c #97A49A",
"@.	c #838E86",
"#.	c #767F78",
"$.	c #758578",
"%.	c #3C533F",
"&.	c #083D12",
"*.	c #14431B",
"=.	c #2B4D30",
"-.	c #043D0C",
";.	c #093E14",
">.	c #1C3E21",
",.	c #4E574F",
"'.	c #778078",
").	c #676F6A",
"!.	c #414641",
"~.	c #3F4540",
"{.	c #5F6660",
"].	c #7D877F",
"^.	c #96A299",
"/.	c #97A39A",
"(.	c #869088",
"_.	c #6F7E72",
":.	c #3D5140",
"<.	c #043C0F",
"[.	c #14441D",
"}.	c #284C2D",
"|.	c #094013",
"1.	c #073C11",
"2.	c #27432B",
"3.	c #505C52",
"4.	c #727B74",
"5.	c #575F59",
"6.	c #4C524C",
"7.	c #39403B",
"8.	c #434A44",
"9.	c #606861",
"0.	c #95A097",
"a.	c #6C736D",
"b.	c #4B514D",
"c.	c #859087",
"d.	c #929E95",
"e.	c #3F4D41",
"f.	c #253E29",
"g.	c #1E3922",
"h.	c #1C3720",
"i.	c #27372A",
"j.	c #767F79",
"k.	c #8E9990",
"l.	c #939F96",
"m.	c #6A726C",
"n.	c #535954",
"o.	c #89948B",
"p.	c #415244",
"q.	c #243D28",
"r.	c #1D3821",
"s.	c #1C3820",
"t.	c #2E3D30",
"u.	c #79847C",
"v.	c #8F9A91",
"w.	c #919D94",
"x.	c #6B736D",
"y.	c #555C56",
"z.	c #8B968E",
"A.	c #8D968F",
"B.	c #949F97",
"C.	c #818B84",
"D.	c #939E95",
"E.	c #919C94",
"F.	c #89918B",
"G.	c #88918A",
"H.	c #909B93",
"I.	c #474E48",
"J.	c #424844",
"K.	c #7A857D",
"L.	c #7C867E",
"M.	c #929D95",
"N.	c #8D9790",
"O.	c #94A097",
"P.	c #919C93",
"Q.	c #737C75",
"R.	c #848F87",
"S.	c #919B94",
"T.	c #89918A",
"U.	c #8F9992",
"V.	c #828D84",
"W.	c #454C46",
"X.	c #474E49",
"Y.	c #757F78",
"Z.	c #7E8880",
"`.	c #8D9890",
" +	c #707972",
".+	c #828A84",
"++	c #868F88",
"@+	c #575E59",
"#+	c #818983",
"$+	c #838C86",
"%+	c #838A85",
"&+	c #848C87",
"*+	c #7C877E",
"=+	c #79847B",
"-+	c #838B85",
";+	c #878F88",
">+	c #586059",
",+	c #848C86",
"'+	c #828B84",
")+	c #858D87",
"!+	c #6B756D",
"~+	c #98A49B",
"{+	c #828984",
"]+	c #505651",
"^+	c #565E58",
"/+	c #6A716C",
"(+	c #79817B",
"_+	c #686F6A",
":+	c #5D6A5F",
"<+	c #405B40",
"[+	c #4F6650",
"}+	c #8B978E",
"|+	c #6F7771",
"1+	c #69716B",
"2+	c #929D94",
"3+	c #848D86",
"4+	c #707872",
"5+	c #78807A",
"6+	c #666D68",
"7+	c #58675A",
"8+	c #39593B",
"9+	c #4C634F",
"0+	c #88938A",
"a+	c #6D756E",
"b+	c #626A65",
"c+	c #9AA79D",
"d+	c #464B47",
"e+	c #767E77",
"f+	c #8B958E",
"g+	c #535C55",
"h+	c #394A3B",
"i+	c #435644",
"j+	c #5A655C",
"k+	c #606862",
"l+	c #415744",
"m+	c #08330F",
"n+	c #113215",
"o+	c #4E5950",
"p+	c #3E433F",
"q+	c #656C66",
"r+	c #666E67",
"s+	c #445645",
"t+	c #485B4A",
"u+	c #757D77",
"v+	c #8B948E",
"w+	c #97A29A",
"x+	c #89958C",
"y+	c #535B55",
"z+	c #3D4F3F",
"A+	c #435645",
"B+	c #5D665F",
"C+	c #425743",
"D+	c #07350D",
"E+	c #123217",
"F+	c #424D41",
"G+	c #424743",
"H+	c #636965",
"I+	c #656E66",
"J+	c #465847",
"K+	c #4B5C4D",
"L+	c #768079",
"M+	c #6C766E",
"N+	c #434945",
"O+	c #647567",
"P+	c #778279",
"Q+	c #8A948D",
"R+	c #3B493D",
"S+	c #0F3D17",
"T+	c #374F3A",
"U+	c #525B54",
"V+	c #47504A",
"W+	c #78847B",
"X+	c #878F89",
"Y+	c #89938B",
"Z+	c #494F4B",
"`+	c #494F4A",
" @	c #3F4641",
".@	c #2D4230",
"+@	c #12411B",
"@@	c #0E3F16",
"#@	c #2A4E30",
"$@	c #657367",
"%@	c #77827A",
"&@	c #8B948D",
"*@	c #869089",
"=@	c #3F4C41",
"-@	c #113E19",
";@	c #2E4B31",
">@	c #59605B",
",@	c #4A514B",
"'@	c #69736B",
")@	c #879089",
"!@	c #4E544F",
"~@	c #2C422F",
"{@	c #143F1B",
"]@	c #104018",
"^@	c #2B4B2F",
"/@	c #737E73",
"(@	c #868F89",
"_@	c #939E96",
":@	c #666D67",
"<@	c #104518",
"[@	c #39543C",
"}@	c #6D756F",
"|@	c #5A615B",
"1@	c #333935",
"2@	c #28322A",
"3@	c #68736B",
"4@	c #8C988F",
"5@	c #95A098",
"6@	c #3F4741",
"7@	c #273329",
"8@	c #203823",
"9@	c #013F0F",
"0@	c #144519",
"a@	c #3C543F",
"b@	c #7A827C",
"c@	c #585F5A",
"d@	c #2B352D",
"e@	c #677369",
"f@	c #909C93",
"g@	c #8E9A91",
"h@	c #838D85",
"i@	c #424A43",
"j@	c #273128",
"k@	c #1F3823",
"l@	c #013D0E",
"m@	c #495F4A",
"n@	c #647266",
"o@	c #88918B",
"p@	c #79837C",
"q@	c #183C1E",
"r@	c #114019",
"s@	c #4D5E50",
"t@	c #484E4A",
"u@	c #3D423E",
"v@	c #323733",
"w@	c #8F9991",
"x@	c #808B83",
"y@	c #3B403C",
"z@	c #2B332C",
"A@	c #183B1E",
"B@	c #15401C",
"C@	c #525F55",
"D@	c #474D48",
"E@	c #3D433F",
"F@	c #323633",
"G@	c #6C756E",
"H@	c #8D978F",
"I@	c #6D7670",
"J@	c #2D342E",
"K@	c #133C19",
"L@	c #38533A",
"M@	c #626A64",
"N@	c #313832",
"O@	c #263729",
"P@	c #39473B",
"Q@	c #68716A",
"R@	c #484F49",
"S@	c #8F9A92",
"T@	c #87908A",
"U@	c #727B75",
"V@	c #232723",
"W@	c #323934",
"X@	c #28362A",
"Y@	c #3E4940",
"Z@	c #555D57",
"`@	c #747E76",
" #	c #717973",
".#	c #2F3430",
"+#	c #223625",
"@#	c #143D16",
"##	c #3B413D",
"$#	c #4A504B",
"%#	c #3D423D",
"&#	c #343935",
"*#	c #5B625D",
"=#	c #3C423D",
"-#	c #96A199",
";#	c #8A958D",
">#	c #323632",
",#	c #8A938C",
"'#	c #848D87",
")#	c #6A736C",
"!#	c #303530",
"~#	c #313732",
"{#	c #616A63",
"]#	c #353A36",
"^#	c #5A615C",
"/#	c #96A198",
"(#	c #8C978E",
"_#	c #59605A",
":#	c #5C635D",
"<#	c #8C968F",
"[#	c #363B37",
"}#	c #575E58",
"|#	c #6F7671",
"1#	c #909A93",
"2#	c #97A299",
"3#	c #525953",
"4#	c #757C76",
"5#	c #636C65",
"6#	c #89938C",
"7#	c #5C625D",
"8#	c #4B514C",
"9#	c #5D635E",
"0#	c #929C94",
"a#	c #444945",
"b#	c #5C635E",
"c#	c #818A84",
"d#	c #484D49",
"e#	c #5B625C",
"f#	c #454A46",
"g#	c #606662",
"h#	c #677169",
"i#	c #455A47",
"j#	c #58665A",
"k#	c #475A4B",
"l#	c #58655A",
"m#	c #5E655F",
"n#	c #646D66",
"o#	c #445847",
"p#	c #59665B",
"q#	c #343A36",
"r#	c #565D58",
"s#	c #656F66",
"t#	c #29482C",
"u#	c #19401E",
"v#	c #38433A",
"w#	c #373D38",
"x#	c #6F7670",
"y#	c #646F66",
"z#	c #224624",
"A#	c #1A4020",
"B#	c #38423A",
"C#	c #383D39",
"D#	c #383E39",
"E#	c #747B76",
"F#	c #616C63",
"G#	c #28482A",
"H#	c #38413A",
"I#	c #415745",
"J#	c #183E1F",
"K#	c #363F37",
"L#	c #676F68",
"M#	c #414741",
"N#	c #313E34",
"O#	c #606D62",
"P#	c #828A83",
"Q#	c #425746",
"R#	c #123C19",
"S#	c #353E37",
"T#	c #656D67",
"U#	c #383D3A",
"V#	c #313C34",
"W#	c #637165",
"X#	c #737B75",
"Y#	c #68706A",
"Z#	c #3F5543",
"`#	c #183D1E",
" $	c #383E3A",
".$	c #363A37",
"+$	c #324D36",
"@$	c #29352B",
"#$	c #444A45",
"$$	c #616963",
"%$	c #204325",
"&$	c #16421B",
"*$	c #4B5C4E",
"=$	c #747C76",
"-$	c #7B837D",
";$	c #5C655E",
">$	c #394D3C",
",$	c #2C342D",
"'$	c #444A46",
")$	c #223F26",
"!$	c #1A4420",
"~$	c #505E52",
"{$	c #777F79",
"]$	c #384F3B",
"^$	c #2B352C",
"/$	c #474D49",
"($	c #3D433E",
"_$	c #4D534F",
":$	c #434944",
"<$	c #869189",
"[$	c #393F3A",
"}$	c #676E68",
"|$	c #435844",
"1$	c #27402B",
"2$	c #1E4223",
"3$	c #505B52",
"4$	c #5C645E",
"5$	c #58625A",
"6$	c #596C5B",
"7$	c #69756B",
"8$	c #67726A",
"9$	c #4D534E",
"0$	c #8C978F",
"a$	c #3B413C",
"b$	c #636B65",
"c$	c #4D5B4F",
"d$	c #243F28",
"e$	c #17401B",
"f$	c #505C51",
"g$	c #586B59",
"h$	c #67756A",
"i$	c #656F67",
"j$	c #5B645D",
"k$	c #4C524D",
"l$	c #4A514C",
"m$	c #7B857E",
"n$	c #858E87",
"o$	c #434844",
"p$	c #606B62",
"q$	c #344B36",
"r$	c #053F10",
"s$	c #3C5340",
"t$	c #4D5C50",
"u$	c #516054",
"v$	c #1E4523",
"w$	c #4D544E",
"x$	c #3A403C",
"y$	c #3E443F",
"z$	c #5C675E",
"A$	c #4E5550",
"B$	c #354E39",
"C$	c #335036",
"D$	c #627065",
"E$	c #6B746D",
"F$	c #4F5D52",
"G$	c #244828",
"H$	c #4B5A4D",
"I$	c #454B47",
"J$	c #838C85",
"K$	c #393F3B",
"L$	c #565D57",
"M$	c #525853",
"N$	c #4C524E",
"O$	c #727C74",
"P$	c #99A59C",
"Q$	c #7B857D",
"R$	c #617364",
"S$	c #2E4B32",
"T$	c #043D0F",
"U$	c #1D4421",
"V$	c #405644",
"W$	c #013C09",
"X$	c #163F1E",
"Y$	c #4A564C",
"Z$	c #565C57",
"`$	c #535A55",
" %	c #7D8880",
".%	c #677069",
"+%	c #5F6E62",
"@%	c #2F4B34",
"#%	c #023C0D",
"$%	c #214727",
"%%	c #3B533F",
"&%	c #0B4115",
"*%	c #043C0E",
"=%	c #1B3F20",
"-%	c #49564B",
";%	c #555C57",
">%	c #7B847E",
",%	c #7E8A81",
"'%	c #334836",
")%	c #1A3E21",
"!%	c #143A1B",
"~%	c #163A1D",
"{%	c #243727",
"]%	c #636E66",
"^%	c #7E8981",
"/%	c #8F9B92",
"(%	c #7F8881",
"_%	c #2F4734",
":%	c #193D20",
"<%	c #153B1C",
"[%	c #253A28",
"}%	c #848E87",
"|%	c #727A74",
"1%	c #87928A",
"2%	c #7A847C",
"3%	c #6E7771",
"4%	c #99A69C",
"5%	c #8E9890",
"6%	c #3F4541",
"7%	c #717A74",
"8%	c #89928C",
"9%	c #909B92",
"0%	c #595F5B",
"a%	c #78827A",
"b%	c #737D75",
"c%	c #909A92",
"d%	c #88928A",
"e%	c #67706A",
"f%	c #8F9B91",
"g%	c #555E57",
"h%	c #657267",
"i%	c #516654",
"j%	c #606F62",
"k%	c #788179",
"l%	c #949E96",
"m%	c #89928B",
"n%	c #59615A",
"o%	c #6D766F",
"p%	c #667267",
"q%	c #4F6452",
"r%	c #60715F",
"s%	c #8D988F",
"t%	c #88928B",
"u%	c #849087",
"v%	c #405043",
"w%	c #495D4D",
"x%	c #5D685F",
"y%	c #5F6861",
"z%	c #3D543F",
"A%	c #083710",
"B%	c #163819",
"C%	c #5B665D",
"D%	c #69726B",
"E%	c #4C5F4F",
"F%	c #536456",
"G%	c #787F79",
"H%	c #425445",
"I%	c #495C4C",
"J%	c #606962",
"K%	c #5C655F",
"L%	c #39533A",
"M%	c #04380B",
"N%	c #123518",
"O%	c #4E5A4E",
"P%	c #414742",
"Q%	c #4E6151",
"R%	c #78817B",
"S%	c #6D7C6F",
"T%	c #7E8780",
"U%	c #394B3C",
"V%	c #0B4016",
"W%	c #39513C",
"X%	c #525A54",
"Y%	c #414942",
"Z%	c #79837B",
"`%	c #3A403B",
" &	c #3A4B3C",
".&	c #0C3F15",
"+&	c #0E3F17",
"@&	c #3B553F",
"#&	c #6F7B71",
"$&	c #858E86",
"%&	c #3A4A3D",
"&&	c #0C4017",
"*&	c #384F3A",
"=&	c #5C685E",
"-&	c #78827B",
";&	c #364937",
">&	c #0E4118",
",&	c #11421A",
"'&	c #3B5840",
")&	c #727C73",
"!&	c #96A298",
"~&	c #1E4820",
"{&	c #445A46",
"]&	c #707772",
"^&	c #343B35",
"/&	c #273529",
"(&	c #5D6960",
"_&	c #98A59B",
":&	c #39433B",
"<&	c #1C3921",
"[&	c #003F0C",
"}&	c #244A28",
"|&	c #455948",
"1&	c #879189",
"2&	c #606762",
"3&	c #343B36",
"4&	c #2D3A2F",
"5&	c #596559",
"6&	c #7B847D",
"7&	c #39433A",
"8&	c #263327",
"9&	c #1B3921",
"0&	c #003D0C",
"a&	c #254B27",
"b&	c #4D604E",
"c&	c #717873",
"d&	c #7E867F",
"e&	c #5F6761",
"f&	c #103C18",
"g&	c #16431E",
"h&	c #525954",
"i&	c #323834",
"j&	c #757E77",
"k&	c #353B36",
"l&	c #243627",
"m&	c #143B1B",
"n&	c #1B4321",
"o&	c #546057",
"p&	c #4F5550",
"q&	c #636A65",
"r&	c #8E9891",
"s&	c #8A948C",
"t&	c #646C65",
"u&	c #333A35",
"v&	c #273729",
"w&	c #113D19",
"x&	c #1C4523",
"y&	c #556157",
"z&	c #4B504C",
"A&	c #2E3830",
"B&	c #223724",
"C&	c #3C4D3F",
"D&	c #545B56",
"E&	c #666F68",
"F&	c #848C85",
"G&	c #676F69",
"H&	c #252926",
"I&	c #253627",
"J&	c #434E45",
"K&	c #858D86",
"L&	c #2E322F",
"M&	c #303831",
"N&	c #1E3721",
"O&	c #475149",
"P&	c #868E88",
"Q&	c #778179",
"R&	c #363C38",
"S&	c #6A736D",
"T&	c #414743",
"U&	c #848B86",
"V&	c #383F3A",
"W&	c #767D77",
"X&	c #323833",
"Y&	c #8B978F",
"Z&	c #575D58",
"`&	c #373C39",
" *	c #454A45",
".*	c #6F7571",
"+*	c #828B85",
"@*	c #626863",
"#*	c #526154",
"$*	c #646F65",
"%*	c #616862",
"&*	c #536256",
"**	c #647067",
"=*	c #5F6661",
"-*	c #677269",
";*	c #373C38",
">*	c #68726A",
",*	c #314E33",
"'*	c #19411D",
")*	c #303B31",
"!*	c #737B74",
"~*	c #68736A",
"{*	c #294B2B",
"]*	c #1B4221",
"^*	c #303A32",
"/*	c #787F7A",
"(*	c #69746B",
"_*	c #2F4E31",
":*	c #1A401F",
"<*	c #313D33",
"[*	c #48594B",
"}*	c #17401F",
"|*	c #737D76",
"1*	c #808883",
"2*	c #47594A",
"3*	c #0F3D16",
"4*	c #39423A",
"5*	c #4A524C",
"6*	c #313933",
"7*	c #6D7970",
"8*	c #47584A",
"9*	c #163F1D",
"0*	c #3C433E",
"a*	c #79827B",
"b*	c #2E4B33",
"c*	c #253428",
"d*	c #1D3C21",
"e*	c #214726",
"f*	c #556256",
"g*	c #6D746F",
"h*	c #354D39",
"i*	c #253528",
"j*	c #1E3B21",
"k*	c #6F7871",
"l*	c #314A35",
"m*	c #27342A",
"n*	c #859088",
"o*	c #69706B",
"p*	c #425B43",
"q*	c #193C1F",
"r*	c #1F4424",
"s*	c #535E55",
"t*	c #5A635C",
"u*	c #67746A",
"v*	c #5E6560",
"w*	c #515852",
"x*	c #828C85",
"y*	c #4E5F50",
"z*	c #1B3E21",
"A*	c #134117",
"B*	c #556057",
"C*	c #5B655E",
"D*	c #68746A",
"E*	c #79807B",
"F*	c #69726C",
"G*	c #4E5C51",
"H*	c #39413A",
"I*	c #3A503C",
"J*	c #0C4016",
"K*	c #566158",
"L*	c #5A665C",
"M*	c #2A4A2C",
"N*	c #4F5D51",
"O*	c #505852",
"P*	c #88938B",
"Q*	c #636B66",
"R*	c #4D5950",
"S*	c #3D473E",
"T*	c #3A523E",
"U*	c #0C4116",
"V*	c #556357",
"W*	c #2F4E32",
"X*	c #4C534D",
"Y*	c #747F77",
"Z*	c #5D6D60",
"`*	c #244429",
" =	c #023E0E",
".=	c #234625",
"+=	c #4E5C50",
"@=	c #013D08",
"#=	c #023D0C",
"$=	c #0F3E17",
"%=	c #435045",
"&=	c #656F68",
"*=	c #59675A",
"==	c #254529",
"-=	c #28482C",
";=	c #495A4B",
">=	c #0E4116",
",=	c #023D0D",
"'=	c #0F3B15",
")=	c #414F43",
"!=	c #424944",
"~=	c #4D544F",
"{=	c #4B524D",
"]=	c #29472D",
"^=	c #0E3D17",
"/=	c #0D3B15",
"(=	c #203924",
"_=	c #566258",
":=	c #555B57",
"<=	c #234429",
"[=	c #0C3D16",
"}=	c #0E3B16",
"|=	c #0F3D18",
"1=	c #213924",
"2=	c #858F88",
"3=	c #949F96",
"4=	c #727D75",
"5=	c #373E39",
"6=	c #636D65",
"7=	c #97A399",
"8=	c #8B958D",
"9=	c #95A199",
"0=	c #707B72",
"a=	c #373E38",
"b=	c #8D9990",
"c=	c #666F69",
"  . + @ # $ % & * = - ; > , ' ) ! ~ { ] ^ / ( _ : < [ } | 1 2 3 4 5 6 7 8 9 0 a b c d e f g h i ",
"j k l l # m n o p q r s t u v w x y z A B C B D E # m F G H . I J K L M N O P Q R S T ( U V W X ",
"Y $ k Z ` 3  ...+.@.#.$.%.&.*.=.-.;.>.,.#.'.).d !.~.{.].^./.(.#._.:.<.[.}.|.1.2.3.4.Y 5.6.7.8.9.",
"/.0.a.b.c.d./.^.^./././.(.e.f.g.h.i.j.k././.l.m.n.: d./.^.^././.^.o.p.q.r.s.t.u.v.^./.w.x.y.z.d.",
"A.B.d.~ C.D.E.F.F.F.G.H.^.c.I.J.K.L./.^.M.N.O.P.Q.R.d.S.F.F.F.T.U./.V.W.X.Y.Z.O.^.B.`.l.d. +o.d.",
".+++B.M.@+#+$+#+#+.+%+&+U./.*+=++./.^.U.-+.+;+B.w.>+.+,+.+#+'+-+)+_ /.#.!+/./.~+`.,+{+_ ^.l.]+E ",
"#+D E...^+I /+~ (+_+:+<+[+}+|+1+2+3+.+) #+#+#+E...c b.4+Q.5+6+7+8+9+0+a+b++ ,+.+D D #+,+l.c+d+e+",
".+#+f+^.}+g+h+i+j+k+l+m+n+o+p+m q+r+s+t+u+.+#+v+w+x+y+z+A+B+- C+D+E+F+G+h H+I+J+K+L+.+#+O.~+M+N+",
"O+P+#+Q+..G.R+S+T+U+V+W+X+Y+Z+`+ @.@+@@@#@$@%@#+&@^.*@=@-@;@>@,@'@)@U !@  < ~@{@]@^@/@#+(@l._@:@",
"<@[@}@5+)@|@1@2@3@4@`.5@~+/._ _ c.6@7@8@9@0@a@}@b@$+c@m d@e@f@`.D.~+^.g@_ h@i@j@k@l@m@n@E o@^.p@",
"q@r@s@- t@u@v@4+O.O._@B.X+w@_@_@^.g@x@y@z@A@B@C@- D@E@F@G@O.O._@M.)@H@_@_@..H.I@W J@K@L@M@ +~ p+",
"N@O@P@y.Y.Q@R@S@0.T@-+-+#+.+-+'+H./.B.U@V@W@X@Y@Z@`@! p+l...*@-+.+#+.+-+,+S@~+B. #.#+#@#; y+##$#",
"h %#G+&#*#=#D@: (@#+#+#+#+#+#+#+.+,+-#^.;#h u@# >#^ =#Z ,#++#+#+#+#+#+#+#+.+'#l.^.)#y@!#~#>@k.{#",
"M.M.`.c@v@]#^#E #+#+#+#+#+#+#+#+#+#+G.^./#M.M.(#_#j v@:##+#+#+#+#+#+#+#+#+#+#+<#^...G x.r+[#}#W ",
"/./.^.d.R@v@|##+#+#+#+#+#+#+#+#+#+#+.+1#w+/.2#^.l.3#F@4##+#+#+#+#+#+#+#+#+#+#+#+w@/.5@0.O.5#v@v@",
"#+#+6#)@d 7#.+#+#+#+#+#+#+#+#+#+#+#+#+#+#+#+#+,#@ 8#9#.+#+#+#+#+#+#+#+#+#+#+#+#+#+#+o@f+l.0#y@D@",
"#+.+U D a#b#.+#+#+#+#+#+#+#+#+#+#+#+#+#+#+#+#+c#E d#e#.+#+#+#+#+#+#+#+#+#+#+#+#+#+#+#+#+-+'+f#g#",
"7 h#i#j#u@:#D #+#+#+#+#+#+#+#+#+#+#+#+#+#+7 h#k#l#p+m##+#+#+#+#+#+#+#+#+#+#+#+#+#+#+7 n#o#p#q#r#",
"s#t#u#v#W w#x##+#+#+#+#+#+#+#+#+#+#+#+#+E y#z#A#B#C#D#E##+#+#+#+#+#+#+#+#+#+#+#+#+D F#G#A#H#W F@",
"I#J#K#L#M#D#N#O#Q.7 #+P##+#+#+#+#+#+#+) G@Q#R#S#T#k U#V#W#X#E #+#+#+#+#+#+#+#+#+7 Y#Z#`# $/+.$]#",
"+$@$#$B f#$$%$&$*$M@=$-$D #+#+#+#+#+D m.;$>$,$r '$# $$)$!$~$w {$-$D #+#+#+#+#+7 1+- ]$^$/$($S b#",
"_$:$<$g [$}$|$1$2$3$4$5$6$7$E E X#(+8$;$3 9$#$0$g a$b$c$d$e$f$3 j+g$h$) ) X#5+i$j$4$k$l$U.m$h !+",
"m k$g n$o$a$u@=$p$ @9$q$r$s$p$x.t$u$v$c$( &#w$3+,+k x$y$|+z$i@A$B$r$C$D$E$F$*$G$H$I$v@^+3+J$K$y@",
"Y#L$M$N$]#n.O$O.P$Q$Y#R$S$T$U$V$W$<.X$Y$r+Y#c Z$!@w#`$ +/.~+ %.%+%@%#%$%%%&%*%=%-%T#Q@( >@:$($;%",
"~+w.4$!.>%H.+.^.^./.~+~+,%'%)%!%~%{%]%: /.~+M.m#Z ^%/%+.^.^./.~+^.(%_%:%!%<%[%! ;#^.~+/%^ D@}%f@",
"H.O.H.|%1%O.M.`._ _ N.2+/.2%y$D#!+3%4%^.O.E..._ 4+;#O._@_ _ _ 5%H.^.2%~.6%.%7%d.^.0.f@5@E.H _ B.",
".+8%O.9%0%'+3+#+#+.+#+)+f@/.a%b%~+/.^.c%)+-+d%..H.4$J$3+#+#+.+.+)+f ^.Q.e%^./.^.w@n$-+8%^.f%r#.+",
"#+D E.5@g%^+ #b@8 |+h%i%j%g@k%U@l%m%G.-+#+#+#+P...n%@+X##.8 o%p%q%r%s% #e%w.t%o@-+#+#+D E.4%`+b$",
"#+#+A.-#u%. v%w%x%y%z%A%B%C%a#C#H D%E%F%G%.+#+<#-#h@/ H%I%J%K%L%M%N%O%'$P%/+Q@Q%F%R%.+#+U.^.@.d ",
"S%T%-+H@/.*@U%V%W%X%Y%!+a%Z%< n `% &.&+&@&#&].,+`.^.$&%&&&*&L$i@=&-&4.I$($p+;&>&,&'&)&T%.+U.!&}%",
"~&{&]&-$t%M@^&/&(&<$1%l.~+_&o.o.].:&/&<&[&}&|& #7 1&2&3&4&5&z.1%f@~+..: o.6&7&8&9&0&a&b&c&d&Q+e&",
"f&g&u$M@h&C#i&Y#f@..0.^.m%M.0.0...*@j&k&l&m&n&o&M@p&h m q&w...0.B.,#r&5@5@..s&t&u&v&w&x&y&q&z&K$",
"A&B&C&D&E&b$  k...m%)+)+#+F&)+3+E./.d.G&H&A&I&J&n.E&G&=#H./#G.K&,+#+-+)+++E.~+E.e%L&M&N&O&h&n#:#",
"[$[$($W G&`+/$<#F.#+#+#+#+#+#+#+-+P&w+_@Q&R&[$F W S&  T&<#m%#+#+#+#+#+#+#+U&o@O.l.b$K$V&# w#W&I ",
"z.z.(.N$m X&y.#+.+#+#+#+#+#+#+#+#+#+d%^.O.z.Y&3+!@m v@Z&.+.+#+#+#+#+#+#+#+#+#+A./.E.z.z.*@  `&j ",
"..5@..`. *m .*#+#+#+#+#+#+#+#+#+#+#+-+S.........k.,@v@4##+#+#+#+#+#+#+#+#+#+#++*S@......-#_ W .#",
",+-+f+F.t@|@(%#+#+#+#+#+#+#+#+#+#+#+#+-+,+,+3+A.m%$#^##+#+#+#+#+#+#+#+#+#+#+#+#+%+,+,+,+H@,#F 7#",
"#+#+U #+d+9#.+#+#+#+#+#+#+#+#+#+#+#+#+#+#+#+#+.+E d#*#.+#+#+#+#+#+#+#+#+#+#+#+#+#+#+#+D #+.+d+@*",
"E a+#*$*p+%*#+#+#+#+#+#+#+#+#+#+#+#+#+#+#+E G@&***T&=*.+#+#+#+#+#+#+#+#+#+#+#+#+#+#+E D%#*-*;*4$",
">*,*'*)*m E@!*#+#+#+#+#+#+#+#+#+#+#+#+#+D ~*{*]*^*]#a$/*.+#+#+#+#+#+#+#+#+#+#+#+#+#+(*_*:*<*;*k&",
"[*}*:&|*k ]#H#M+(+E 1*#+#+#+#+#+#+#+#+)  +2*3*4*Q.5*]#6*7*(+D #+#+#+#+#+#+#+#+#+E 1+8*9*0*a*C#]#",
"b*c*`%u@N+b#d*e*f*G&b@E #+#+#+#+#+#+E g*;$h*i*0*S n ^ j*G$4 D%-$E #+#+#+#+#+#+#+k*e&l*m*y@h !.D&",
"n.o$n*x@w#o*p*q*r*s*4$t*u*b%E D 5+7 k*;$v*w*S 4@x*x$N y*z*A*B*4$C*D*O$D E E*-$)#j$- n.t@w@%@W k*",
";*p&@ 6#  Z y$F*G*H*`$I*J*x h#g*K*L*M*N*O*]#h&d%P*/$S n Q*R*S*`$T*U*[@m.|+5$V*W*c$X*[#b#++(.h :$",
"J%w$9#Z$j $#!+l.~+Y*J%Z*`* =.=+=@=#=$=%=B+J%X%q&^#j . &=^./.Y J%*===#=-=;=>=,='=)=;${#!=G&~=C#{=",
"~+P.X%F 4.0$+.^.^.+.~+~+Q&]=^=/=w&(=_=R./.~+S@:=W Z%(#+.^.^./.~+^.Z%<=[=}=|=1=y#2=.._&z.w*W ) 5%",
"2+../%a+}+-#O.S@_ _ _ 3=^.4=5=T 6=N 7=^...2+-#8=! v.9=B.v._ _ _ _@-#0=a=V&3 D%/%^.^.M...s%x.2+..",
"-+Q+9=b=k+)+P&#+D #+#+n$2+/.`@ +~+~+^.M.)@-+Q+-#`.n#n$P&#+D #+#+;+E...H c=^.~+^.d.G.-++ ^.`.m#3+"};
