/* XPM */
static char * bone_xpm[] = {
"48 48 407 2",
"  	c #297E37",
". 	c #2C803A",
"+ 	c #2E823C",
"@ 	c #2E843D",
"# 	c #30863F",
"$ 	c #30853F",
"% 	c #2B813A",
"& 	c #297F38",
"* 	c #2A7F39",
"= 	c #2D833C",
"- 	c #2A8039",
"; 	c #328841",
"> 	c #2C823B",
", 	c #2F853E",
"' 	c #348A43",
") 	c #2B803A",
"! 	c #2D823C",
"~ 	c #318740",
"{ 	c #338942",
"] 	c #2F843D",
"^ 	c #2B8039",
"/ 	c #2C813A",
"( 	c #2E833D",
"_ 	c #2C813B",
": 	c #318640",
"< 	c #2F843E",
"[ 	c #2D823B",
"} 	c #277D36",
"| 	c #287E37",
"1 	c #2E833C",
"2 	c #30853E",
"3 	c #2F833D",
"4 	c #30843E",
"5 	c #297E38",
"6 	c #2B7E38",
"7 	c #30843D",
"8 	c #2D813B",
"9 	c #30833D",
"0 	c #31843E",
"a 	c #328640",
"b 	c #328540",
"c 	c #2F823C",
"d 	c #2F833C",
"e 	c #31853E",
"f 	c #2B7F39",
"g 	c #2C7F39",
"h 	c #2D803A",
"i 	c #2E813B",
"j 	c #31853F",
"k 	c #30823D",
"l 	c #2F813C",
"m 	c #32853F",
"n 	c #348741",
"o 	c #2D813A",
"p 	c #287D37",
"q 	c #2C7E39",
"r 	c #358842",
"s 	c #2A7D37",
"t 	c #2C8039",
"u 	c #2E803A",
"v 	c #2E803B",
"w 	c #2E823B",
"x 	c #32843E",
"y 	c #30823C",
"z 	c #2D7F39",
"A 	c #2D7F3A",
"B 	c #2D803B",
"C 	c #338640",
"D 	c #31843F",
"E 	c #2B813B",
"F 	c #2D813C",
"G 	c #2C803B",
"H 	c #2C7F3A",
"I 	c #2E823D",
"J 	c #2B803B",
"K 	c #2F843F",
"L 	c #2C813C",
"M 	c #297E39",
"N 	c #2F833E",
"O 	c #30833E",
"P 	c #2B7F3A",
"Q 	c #2B7E3A",
"R 	c #2A7F3A",
"S 	c #2E833E",
"T 	c #287D38",
"U 	c #2C823C",
"V 	c #2D823D",
"W 	c #2E823E",
"X 	c #2D813D",
"Y 	c #2B803C",
"Z 	c #2C813D",
"` 	c #2E833F",
" .	c #287D39",
"..	c #308440",
"+.	c #2F833F",
"@.	c #2B7F3B",
"#.	c #2A7F3B",
"$.	c #2D823E",
"%.	c #2F8440",
"&.	c #297E3A",
"*.	c #2F853F",
"=.	c #2D813E",
"-.	c #2F8340",
";.	c #2E823F",
">.	c #2E843F",
",.	c #2C7F3C",
"'.	c #2F803E",
").	c #397543",
"!.	c #4A6B4F",
"~.	c #5A755E",
"{.	c #5A745D",
"].	c #4D6C51",
"^.	c #34733F",
"/.	c #2D803D",
"(.	c #318542",
"_.	c #318642",
":.	c #2D7F3D",
"<.	c #397242",
"[.	c #4F6C53",
"}.	c #58735B",
"|.	c #58725B",
"1.	c #397D45",
"2.	c #2E813E",
"3.	c #2C823D",
"4.	c #30783D",
"5.	c #3A5C3F",
"6.	c #394D3C",
"7.	c #8E8E8E",
"8.	c #D8D8D8",
"9.	c #D6D6D6",
"0.	c #A2A2A2",
"a.	c #2D4630",
"b.	c #2C753A",
"c.	c #2C803C",
"d.	c #2E6A38",
"e.	c #435445",
"f.	c #A7A7A7",
"g.	c #CFCFCF",
"h.	c #CECECE",
"i.	c #D0D0D0",
"j.	c #6B7C6D",
"k.	c #3C6242",
"l.	c #337B40",
"m.	c #34743F",
"n.	c #445245",
"o.	c #9D9D9D",
"p.	c #E2E2E2",
"q.	c #F2F2F2",
"r.	c #FFFFFF",
"s.	c #FBFBFB",
"t.	c #F1F1F1",
"u.	c #EAEAEA",
"v.	c #999E99",
"w.	c #377442",
"x.	c #2B7F3C",
"y.	c #306A3A",
"z.	c #B4B6B4",
"A.	c #E1E1E1",
"B.	c #F3F3F3",
"C.	c #FEFEFE",
"D.	c #FDFDFD",
"E.	c #F9F9F9",
"F.	c #E3E3E3",
"G.	c #7A7B7A",
"H.	c #435846",
"I.	c #317D3F",
"J.	c #308640",
"K.	c #377141",
"L.	c #898A89",
"M.	c #FCFCFC",
"N.	c #AAAAAA",
"O.	c #505E52",
"P.	c #35723F",
"Q.	c #2D7D3C",
"R.	c #2D7C3B",
"S.	c #2E7E3D",
"T.	c #2F7E3E",
"U.	c #2C7C3B",
"V.	c #307F3F",
"W.	c #2E7D3C",
"X.	c #377240",
"Y.	c #505751",
"Z.	c #C9C9C9",
"`.	c #F8F8F8",
" +	c #F5F5F5",
".+	c #DFDFDF",
"++	c #8B8F8B",
"@+	c #307B3E",
"#+	c #2F8540",
"$+	c #387241",
"%+	c #8F908F",
"&+	c #F0F0F0",
"*+	c #E4E4E4",
"=+	c #999A99",
"-+	c #647065",
";+	c #627564",
">+	c #637665",
",+	c #627665",
"'+	c #627565",
")+	c #FAFAFA",
"!+	c #F7F7F7",
"~+	c #F6F6F6",
"{+	c #EEEEEE",
"]+	c #969996",
"^+	c #307A3E",
"/+	c #287C38",
"(+	c #939493",
"_+	c #F4F4F4",
":+	c #E8E8E8",
"<+	c #E5E5E5",
"[+	c #ECECEC",
"}+	c #EDEDED",
"|+	c #307B3F",
"1+	c #267B37",
"2+	c #367040",
"3+	c #878887",
"4+	c #E0E0E0",
"5+	c #EFEFEF",
"6+	c #EBEBEB",
"7+	c #E7E7E7",
"8+	c #E6E6E6",
"9+	c #878B88",
"0+	c #357540",
"a+	c #566157",
"b+	c #A5A5A5",
"c+	c #D3D3D3",
"d+	c #DCDCDC",
"e+	c #DDDDDD",
"f+	c #8D8E8D",
"g+	c #566558",
"h+	c #307C3E",
"i+	c #318240",
"j+	c #387041",
"k+	c #5A5A5A",
"l+	c #727272",
"m+	c #ADADAD",
"n+	c #707070",
"o+	c #4F5550",
"p+	c #377041",
"q+	c #2E813D",
"r+	c #387441",
"s+	c #585A58",
"t+	c #BEBEBE",
"u+	c #979797",
"v+	c #565E57",
"w+	c #327C3F",
"x+	c #30813E",
"y+	c #4B7450",
"z+	c #9B9C9C",
"A+	c #DBDBDB",
"B+	c #D7D7D7",
"C+	c #E9E9E9",
"D+	c #999C99",
"E+	c #407748",
"F+	c #2F823F",
"G+	c #308541",
"H+	c #35773F",
"I+	c #6C746D",
"J+	c #DADADA",
"K+	c #D9D9D9",
"L+	c #C2C2C2",
"M+	c #A9A9A9",
"N+	c #BBBBBB",
"O+	c #B1B1B1",
"P+	c #CBCBCB",
"Q+	c #C4C4C4",
"R+	c #AEAEAE",
"S+	c #C8C8C8",
"T+	c #B8B8B8",
"U+	c #BDBDBD",
"V+	c #B4B5B4",
"W+	c #5C635D",
"X+	c #337C40",
"Y+	c #297D38",
"Z+	c #33733D",
"`+	c #6A6F6A",
" @	c #C0C0C0",
".@	c #7F857F",
"+@	c #475949",
"@@	c #465848",
"#@	c #455847",
"$@	c #485A4A",
"%@	c #465948",
"&@	c #465949",
"*@	c #495C4C",
"=@	c #485B4B",
"-@	c #495B4B",
";@	c #495C4B",
">@	c #475B4A",
",@	c #626B63",
"'@	c #C1C1C1",
")@	c #686868",
"!@	c #32793E",
"~@	c #2A803A",
"{@	c #32773D",
"]@	c #415A43",
"^@	c #838383",
"/@	c #808080",
"(@	c #34713D",
"_@	c #298038",
":@	c #8AAB8E",
"<@	c #A4A9A4",
"[@	c #757575",
"}@	c #B6B6B6",
"|@	c #DEDEDE",
"1@	c #A6A7A6",
"2@	c #526754",
"3@	c #2F7A3C",
"4@	c #287C39",
"5@	c #2C803D",
"6@	c #376E3F",
"7@	c #646464",
"8@	c #A8A8A8",
"9@	c #C5C5C5",
"0@	c #D1D1D1",
"a@	c #ACACAC",
"b@	c #929292",
"c@	c #647466",
"d@	c #33763D",
"e@	c #318641",
"f@	c #3F894A",
"g@	c #4B7A51",
"h@	c #4B584C",
"i@	c #7C7C7C",
"j@	c #BCBCBC",
"k@	c #7E827E",
"l@	c #367A41",
"m@	c #277B37",
"n@	c #267936",
"o@	c #348844",
"p@	c #328642",
"q@	c #33753D",
"r@	c #435845",
"s@	c #6B6B6B",
"t@	c #AFAFAF",
"u@	c #455547",
"v@	c #377841",
"w@	c #2A7D39",
"x@	c #297D39",
"y@	c #2C7F3B",
"z@	c #2D833D",
"A@	c #396E41",
"B@	c #49574B",
"C@	c #7A7A7A",
"D@	c #CCCCCC",
"E@	c #C7C7C7",
"F@	c #607262",
"G@	c #317E3F",
"H@	c #338743",
"I@	c #328541",
"J@	c #30833F",
"K@	c #327B40",
"L@	c #3A603F",
"M@	c #7F8980",
"N@	c #A6A6A6",
"O@	c #989898",
"P@	c #637265",
"Q@	c #3D6543",
"R@	c #357841",
"S@	c #2D803C",
"T@	c #2F823E",
"U@	c #318541",
"V@	c #2D833E",
"W@	c #387742",
"X@	c #3C6342",
"Y@	c #3F4D40",
"Z@	c #717171",
"`@	c #5F5F5F",
" #	c #36583B",
".#	c #38633E",
"+#	c #317A3E",
"@#	c #2A7D3A",
"##	c #3C7244",
"$#	c #4A684E",
"%#	c #48674C",
"&#	c #2F813F",
"*#	c #2C7E3B",
"=#	c #2E803D",
"-#	c #318441",
";#	c #2F813E",
">#	c #386B40",
",#	c #426346",
"'#	c #416246",
")#	c #337B3F",
"!#	c #2D7F3C",
"~#	c #2A7E3A",
"{#	c #2A7E3B",
"]#	c #297D3A",
"^#	c #30823F",
"/#	c #2B7E39",
"(#	c #2D7F3B",
"_#	c #2E813C",
":#	c #2A7E39",
"<#	c #30843F",
"[#	c #2B813C",
"}#	c #2E843E",
"|#	c #2F823D",
"1#	c #277C38",
"2#	c #297F39",
"3#	c #287C37",
"4#	c #297F3A",
"5#	c #2A7E38",
"6#	c #297C36",
"7#	c #2A803B",
"8#	c #277B38",
"9#	c #2A8139",
"0#	c #257A36",
"  . + @ # $ % & * % = = - - = ; # > > @ , = = = % - > @ ; ' # > - > > - ) ! , ~ , , ; { ~ , @ ] ",
"^ / ( $ ~ # = ! = _ / > ! ! ! , @ % % @ # = @ , > % > @ , @ > ) % = = > _ _ = , , @ # @ > > / % ",
"> > @ : ~ # , $ $ > % > $ < ! > % % % @ $ = @ # = > = = % & & - > @ @ = > % % = = [ > & } - & } ",
") > = ] , # ~ # ( > = , # , = = % - % ( @ / = , = = = > > > = > _ > > > % > > > % % % | } % - | ",
"/ _ % - / @ ~ # , $ # ~ ~ , = , > - > ( = % > , @ @ @ = = @ @ = = @ @ = = @ @ > > = = % % @ @ = ",
"> % - | & > # # # ~ ~ ~ ~ @ = $ 1 % ( @ ! % [ , , , , @ = ! ! = @ ] < , , , < % = , , @ @ , # ~ ",
"% % % -   * ] 2 3 + 1 @ # = % [ [ 1 $ 4 + . ! 2 ] ( [ % & | - [ = % / @ : # = 5 - @ @ [ % ) [ ] ",
"- - - *   6 + 7 3 8 _ = = = ! ] ] 9 0 a b c d e 0 7 + ^   | * = @ > > @ ~ # = 5 ) @ @ = _ ^ . 8 ",
"- - - f g h i 9 9 h _ > - % @ j 0 k l m n m 0 0 9 9 c . * - / @ # , @ , # , = ) [ , @ @ 1 o h h ",
"= = ! ( 9 9 c c c f ^ ) p * [ 1 d i q h 0 r m h s s 6 f / ! @ $ : < @ , # @ > > 1 @ , @ 1 o t 6 ",
"= > > ( 9 c u v i f ) > ) % > 1 w i 9 c c x y z g A h h / / = @ @ = @ , , @ , # , @ @ = / 8 h g ",
"_ _ _ ! B g g h B . / = < = % 3 + c C D B A A h c k k + . * % % E ! ( @ = @ $ # < = ( _ - F 8 h ",
"% = < ( G f H F I + G J K L M ! N O I B G F B P Q G I 3 _ R L E J S ( L L _ R T M U K V R V F P ",
"- @ : < W X Y X S X L Z ` J  .W ..W R P X +.S X @.@.X +.X #.L Y J L Y #.#.Y Y  .#.$.%.$.Y Z Y &.",
"- @ : *.%.` Y =.%.=.=.W =.#.&.-.%.Z &.@.W %...%.` Z Z +.$.Y L Z Z #.#.#.#.X ;.Z =.` ` $.Z Z #.&.",
"> @ , *.>.$.,.'.).!.~.{.].^./.` ` $.#.Y $.` %.(._.` Y Z Z Z Y ` %.Z Y :.<.[.}.|.|.1.'.2.$.Z Y Y ",
"@ , # ( 3.Z 4.5.6.7.8.9.0.a.b.Z $.$.Y $.%.X c.Z $.Z Y Z ` ` $.` %.` Y d.e.f.g.h.i.j.k.l.$.Z $.$.",
", : ~ V Y m.n.o.p.q.r.s.t.u.v.w.=.Z Z ` ..x. . .#.#.#.` %.%.%.` ` ` y.z.A.B.C.D.E.F.G.H.I.Z $.` ",
"J.J.K S Z K.L.u.E.r.r.C.C.M.N.O.P.Q.R.S.T.U.Q.T.V.W.U.T.S.Q.V.V.T.X.Y.Z.E.C.C.C.`. +.+++@+Z Y Y ",
"#+K W $.Z $+%+&+E.r.r.r.r.C.*+=+-+;+;+>+>+,+,+>+>+>+;+;+;+;+>+>+'+-+N.u.E.)+!+!+~+ +{+]+^+$.#./+",
"$.X Z Y Y $+(+&+_+r.r.)+s.r.C.B.:+<+<+<+<+<+<+<+<+<+<+<+<+<+<+<+<+:+~+E.~+~+[+&+ + +}+]+|+` #.1+",
"$.Z #.&.&.2+3+4+&+ +:+_+D.r.t.`.C.D.C.C.C.D.C.C.D.!+~+`.C.C.D.D.D.)+~+ +5+&+B.6+7+8+9.9+@+$.x. .",
"` $.Y #.c.0+a+b+c+d+}+q. +D.s.!+!+!+M.D.D.E.M.D.D.s.s.M.D.s.!+!+!+~+ + +q.B.{+{+e+i.f+g+h+$.Z Y ",
"$.$.$.X +.i+j+k+l+f.7+_+B.~+)+ + + +~+~+~+ +~+~+~+~+~+~+~+~+ + + + + + +5+5+_+5+m+n+o+p+q+$.$.$.",
"#.Y Z Z $.r+s+t+)+C.r.r.r.C.D.`. + +B.B.B. +q.&+ + + + + + + + + + +_+_+ + + + +_+q.u+v+w+$.` %.",
"$.=.$.` x+y+z+t.M.r.r.r.D.~+q.t.q.7+A+A.A+:+d+B+[+&+6+7+&+{+{+C+6+7+C+C+&+ + + + + +*+D+E+F+%.G+",
"%.` W S H+I+m+J+&+M.r.r.)+u.A.K+9.m+b+L+M+N+O+P+Q+g.t+R+i.Z.S+T+U+R+g.B+8+ + + + + +p.V+W+X+>.%.",
"Y $.Z Y+Z+`+M+K+*+{+r.M. +d+ @.@+@@@#@$@%@+@&@*@=@-@+@%@;@;@;@>@$@,@7.L+8+q._+ + +_+B+'@)@!@Z $.",
"&.Y Z ~@{@]@^@K+e+7+`.:+B+Z./@(@& _@- % U E L ` %.` $.K J.~ # = % :@<@[@}@|@[+B. + +|@1@2@3@ .4@",
"5@Z V S J 6@7@8@9@c+F.0@a@b@c@d@& * - = , ! J @.Y X +.e@: , = E > f@g@h@i@j@.+[+5+{+9@k@l@* m@n@",
"o@p@..` J q@r@s@t@P+0@O+[@u@v@S ! ) * ! < G w@/+x@y@I W V U _ z@*.K ( A@B@C@T+i.D@E@=+F@G@L P w@",
"H@I@J@J@W Z K@L@M@N@O@P@Q@R@$.S F P G F F S@y@Q w@y@T@+.W Y L K U@` V V@W@X@Y@Z@`@ #.#+#` L P w@",
"T@T@T@J@+.$.x.@###$#%#).&#2.Z X ,.y@q+S@*#=#T@q+S@q+J@I@%.Z Z ` %.$.Y c.-#;#>#,#'#)#/.$.` @.w@w@",
"S@q+q+X X $.` ;.W =.5@x.x.#.@.X F+J@;#!#y@q+T@T@J@J@....%.` ` c.@.$.x. .Y Y #.~##.Z Z Z c.w@Q S@",
"Q S@q+c.Y Z ` %.+.Z x.{#]#Y W X T@^#S@S@=#q+T@J@T@T@q+W ` ` $.#.~#` =.#.Z $.Z #.&.#.$.$.Z c.q+T@",
"/#(#q+c.@.@.$.W X @.#.#.&.$.G+X c.S@y@q+N F I N q+G G X $.V Z Y c.+.+.` ` %.` @.~#J S ` W 2.;#T@",
"B _#q+S@Y c.+.X #.&.J ! L W K F ~#:#! < <#N F _ F F F F L [#[#V@K +.$.L ) J J G V N S X c.y@y@Q ",
"_#c c F c.Z +.Z &.) _ ! ! S < ! * * ( , , < ! ) > ! _ P ) _ > z@}#( _ ) ) ! ( _ F |#8 . y@F y@~#",
"i i i G c.Z $.Y M J _ > ! }#, ( > % @ , @ @ ! % > > ) 5 - = > > > > ^ - > , 2 [ . h g 6 g I X #.",
"h g 6 Y+M #.Y &.1#T 2#% ! @ , 1 = = = = = = = = @ = % - > @ = = > - & & - % [ [ h g 6 s s F X Y ",
"6 6 s 3#x@&.&.&. .T ~@= @ @ = = = > % % % > = , , = % % > = % % % % > = % % > [ g s g g h _#V Z ",
"6 q q Y+&.#.&.#.#.4#U , $ ( E > > _ - - % > @ }#@ U % % > > - & - > @ # z@[ [ [ 5#6#h c |#I V $.",
"P . B ) J E R J L ~@U *.K V E L L _ ~@~@E ( U % E L E ~@> = > % - - U }#! L L L P :#G F F c.X ;.",
"m@/+:#J _ ) 5 ~@E 2#J $.L J 7#Y Y J J 7#J V 7#T M J L ~@~@% _ > > * ) L J Y Z V L @.@.J c.#.{#{#",
"1+8#M L ! % & & ) * J L &.&.#.Y #.#.Y Y #.#. .1+1##.V [#% % _ = = P R #.#.x.Z $.Z #. .&.Y #.&. .",
"+.` ` K *.@ % 9#% L Z Z #.#.Y #.#.Y $.$.Z  .0#0#1+#.S }#, , @ ( > ~@J Z x.x.Y #.&./+1+ .#.Y Z Z ",
"%.` $.S ! > % % _ L L Y 5@$.$.c.#.Y $.%.$. .1+1#~#Y Z S }#< , , z@E Z $.Y 5@Z Y #.&.&.{##.Y 5@=.",
"$.Z #.J 2#| - % > J R #.Z %.%.$.Y Y $.%.;.&. .#.$.Z #.V ! _ , # , V $.$.Y Z W Z Y Y Z Y Y &.#.Y "};
