/* XPM */
static char * exit2_xpm[] = {
"48 48 876 2",
"  	c #297E37",
". 	c #2C803A",
"+ 	c #2E823C",
"@ 	c #2E843D",
"# 	c #30863F",
"$ 	c #30853F",
"% 	c #2B813A",
"& 	c #297F38",
"* 	c #2A7F39",
"= 	c #2D833C",
"- 	c #2A8039",
"; 	c #328841",
"> 	c #2C823B",
", 	c #2F853E",
"' 	c #348A43",
") 	c #2B803A",
"! 	c #2D823C",
"~ 	c #318740",
"{ 	c #338942",
"] 	c #2F843D",
"^ 	c #2B8039",
"/ 	c #2C813A",
"( 	c #2E833D",
"_ 	c #2C813B",
": 	c #318640",
"< 	c #2F843E",
"[ 	c #2D823B",
"} 	c #277D36",
"| 	c #287E37",
"1 	c #536634",
"2 	c #3E7D3C",
"3 	c #2E833C",
"4 	c #368441",
"5 	c #68744A",
"6 	c #AC905A",
"7 	c #69733C",
"8 	c #528C51",
"9 	c #3C8A47",
"0 	c #30853E",
"a 	c #2F833D",
"b 	c #30843E",
"c 	c #378542",
"d 	c #688657",
"e 	c #7F6B41",
"f 	c #C49859",
"g 	c #CCA66A",
"h 	c #7A7045",
"i 	c #538E53",
"j 	c #408848",
"k 	c #297E38",
"l 	c #2B7E38",
"m 	c #30843D",
"n 	c #2D813B",
"o 	c #30833D",
"p 	c #31843E",
"q 	c #328640",
"r 	c #5A834A",
"s 	c #8A6F42",
"t 	c #C59858",
"u 	c #C59856",
"v 	c #C69A59",
"w 	c #CBA768",
"x 	c #6A7A47",
"y 	c #3F8545",
"z 	c #2B7F39",
"A 	c #2C7F39",
"B 	c #2D803A",
"C 	c #2E813B",
"D 	c #31853F",
"E 	c #30823D",
"F 	c #398543",
"G 	c #62834F",
"H 	c #836D41",
"I 	c #BB9255",
"J 	c #C1934D",
"K 	c #C49551",
"L 	c #C69A5A",
"M 	c #C8A366",
"N 	c #3B8344",
"O 	c #2E813C",
"P 	c #2D813A",
"Q 	c #2F823C",
"R 	c #287D37",
"S 	c #2F833C",
"T 	c #418849",
"U 	c #658757",
"V 	c #866C41",
"W 	c #BC9156",
"X 	c #C2934E",
"Y 	c #AE7F40",
"Z 	c #BB8B45",
"` 	c #C49553",
" .	c #C79C5A",
"..	c #C3A064",
"+.	c #817046",
"@.	c #508246",
"#.	c #2C8039",
"$.	c #2E803A",
"%.	c #2E803B",
"&.	c #398643",
"*.	c #648553",
"=.	c #7F6E41",
"-.	c #C59959",
";.	c #C59758",
">.	c #C2934F",
",.	c #AC7E40",
"'.	c #9E856C",
").	c #9E7347",
"!.	c #BD8D48",
"~.	c #C49552",
"{.	c #C99D5D",
"].	c #B5935C",
"^.	c #83734A",
"/.	c #56864C",
"(.	c #2D803B",
"_.	c #3C8746",
":.	c #457E3D",
"<.	c #C49757",
"[.	c #C1934E",
"}.	c #AB7E3F",
"|.	c #A0856C",
"1.	c #C7C1AB",
"2.	c #B4A792",
"3.	c #956C40",
"4.	c #BE8F49",
"5.	c #C89E5E",
"6.	c #BD975F",
"7.	c #817249",
"8.	c #43884A",
"9.	c #2B813B",
"0.	c #2D813C",
"a.	c #2C803B",
"b.	c #2C7F3A",
"c.	c #2E823D",
"d.	c #2B803B",
"e.	c #2F843F",
"f.	c #2C813C",
"g.	c #327F3C",
"h.	c #5D854F",
"i.	c #887144",
"j.	c #B98F53",
"k.	c #C69857",
"l.	c #AF8040",
"m.	c #9D856B",
"n.	c #C8C3AC",
"o.	c #D2D2BA",
"p.	c #DFDEC9",
"q.	c #BBAF9B",
"r.	c #906436",
"s.	c #C09149",
"t.	c #C49652",
"u.	c #C79E5C",
"v.	c #C19B61",
"w.	c #816F46",
"x.	c #2E833E",
"y.	c #2A7F3A",
"z.	c #287D38",
"A.	c #297E39",
"B.	c #2C823C",
"C.	c #2D823D",
"D.	c #2B7F3A",
"E.	c #2E823E",
"F.	c #2D813D",
"G.	c #2B803C",
"H.	c #2C813D",
"I.	c #2E833F",
"J.	c #608453",
"K.	c #837244",
"L.	c #C19556",
"M.	c #C59957",
"N.	c #C2924E",
"O.	c #B38442",
"P.	c #977C64",
"Q.	c #CAC8AF",
"R.	c #9E917D",
"S.	c #D7D2C3",
"T.	c #E5E4D1",
"U.	c #BCB49C",
"V.	c #906331",
"W.	c #C19149",
"X.	c #C89C5B",
"Y.	c #BB9A61",
"Z.	c #7F7554",
"`.	c #4F8E56",
" +	c #2A7F3B",
".+	c #287D39",
"++	c #2D823E",
"@+	c #2F8440",
"#+	c #297E3A",
"$+	c #2F853F",
"%+	c #2D813E",
"&+	c #53793D",
"*+	c #846E40",
"=+	c #C19658",
"-+	c #C69957",
";+	c #C2924C",
">+	c #B68644",
",+	c #8E735B",
"'+	c #CFCBB4",
")+	c #CCCAB3",
"!+	c #AAAB9D",
"~+	c #D4D6CC",
"{+	c #8F856E",
"]+	c #D2D2C5",
"^+	c #E4E3D3",
"/+	c #BCB29E",
"(+	c #946637",
"_+	c #BF8F4A",
":+	c #C49653",
"<+	c #C79B5C",
"[+	c #C9A569",
"}+	c #66683C",
"|+	c #3B8446",
"1+	c #2E843F",
"2+	c #308541",
"3+	c #2F833F",
"4+	c #856B41",
"5+	c #BB9256",
"6+	c #B68744",
"7+	c #896853",
"8+	c #D1CCB5",
"9+	c #CCC9B3",
"0+	c #BABEB0",
"a+	c #B8B8AC",
"b+	c #EAE9DC",
"c+	c #C6C2B1",
"d+	c #AAAEA4",
"e+	c #E2E3D8",
"f+	c #E5E2D2",
"g+	c #B9AD9B",
"h+	c #9A6F41",
"i+	c #BD8E49",
"j+	c #C59654",
"k+	c #C79B5A",
"l+	c #C8A56A",
"m+	c #7C7452",
"n+	c #358443",
"o+	c #2C823D",
"p+	c #46894C",
"q+	c #7F6C40",
"r+	c #BB9155",
"s+	c #B48645",
"t+	c #8C6B53",
"u+	c #CFCAB5",
"v+	c #D0CEBA",
"w+	c #A6A592",
"x+	c #B6B7A9",
"y+	c #EBE9DB",
"z+	c #EBE9DC",
"A+	c #E3E1D3",
"B+	c #E0DFD2",
"C+	c #ABAFA5",
"D+	c #C2BFAF",
"E+	c #E5E2D1",
"F+	c #B2A593",
"G+	c #9F7547",
"H+	c #BC8D49",
"I+	c #C59754",
"J+	c #C19F64",
"K+	c #78774E",
"L+	c #4B8B51",
"M+	c #358543",
"N+	c #2C803C",
"O+	c #2B7F3B",
"P+	c #44864A",
"Q+	c #816B40",
"R+	c #C89859",
"S+	c #C69759",
"T+	c #C2944F",
"U+	c #B28443",
"V+	c #96775A",
"W+	c #C9C4AD",
"X+	c #D0CFBA",
"Y+	c #B3B5A6",
"Z+	c #A29E8D",
"`+	c #EBEADC",
" @	c #DEDDD1",
".@	c #BCC3BD",
"+@	c #DADACD",
"@@	c #E4E0D0",
"#@	c #AD9F8E",
"$@	c #A27949",
"%@	c #BD8E48",
"&@	c #C49654",
"*@	c #C89C5E",
"=@	c #BF9B63",
"-@	c #767D50",
";@	c #4D8C53",
">@	c #308240",
",@	c #308640",
"'@	c #338342",
")@	c #4B854E",
"!@	c #877240",
"~@	c #BB9154",
"{@	c #C59857",
"]@	c #C39451",
"^@	c #B38343",
"/@	c #9C7F63",
"(@	c #AB9D89",
"_@	c #B2A693",
":@	c #A79C89",
"<@	c #8C826F",
"[@	c #C4BAAE",
"}@	c #C4B9AE",
"|@	c #C3B9AE",
"1@	c #A49A8C",
"2@	c #999285",
"3@	c #B8AC9F",
"4@	c #9F8E7B",
"5@	c #A17746",
"6@	c #C99E5E",
"7@	c #BC9961",
"8@	c #878F65",
"9@	c #3D8847",
"0@	c #2F8540",
"a@	c #338442",
"b@	c #398344",
"c@	c #817745",
"d@	c #C49758",
"e@	c #C69958",
"f@	c #C29450",
"g@	c #B28441",
"h@	c #9E8062",
"i@	c #B8B199",
"j@	c #857151",
"k@	c #B4A5A4",
"l@	c #C2B7B6",
"m@	c #BCB0A8",
"n@	c #C2B8B5",
"o@	c #B5A9A2",
"p@	c #AFA299",
"q@	c #C2B7B3",
"r@	c #C1B6B2",
"s@	c #B2A59D",
"t@	c #C2B6B3",
"u@	c #C1B6B3",
"v@	c #B7ABA4",
"w@	c #C2B7B4",
"x@	c #816D4C",
"y@	c #C9C1AE",
"z@	c #ACA08C",
"A@	c #9D713E",
"B@	c #C0914B",
"C@	c #C9A05F",
"D@	c #B9975E",
"E@	c #808357",
"F@	c #2F813F",
"G@	c #287C38",
"H@	c #708659",
"I@	c #7B7243",
"J@	c #C19356",
"K@	c #C69859",
"L@	c #B38444",
"M@	c #9A7B5E",
"N@	c #C1BAA5",
"O@	c #CCC8B0",
"P@	c #877357",
"Q@	c #E8E4E5",
"R@	c #F7F6EF",
"S@	c #F1EEE1",
"T@	c #F2F1E5",
"U@	c #BFC0B2",
"V@	c #BBBBAD",
"W@	c #C0C1B2",
"X@	c #B2B4A0",
"Y@	c #BDBEB1",
"Z@	c #C3C3B5",
"`@	c #BABAAC",
" #	c #D4D5CC",
".#	c #FAFBF8",
"+#	c #D4CCBF",
"@#	c #E1DECE",
"##	c #AF9E8C",
"$#	c #986A36",
"%#	c #C1924C",
"&#	c #C99F5F",
"*#	c #B9965E",
"=#	c #858561",
"-#	c #3B8647",
";#	c #267B37",
">#	c #2F803E",
",#	c #3B8142",
"'#	c #826E43",
")#	c #B78C51",
"!#	c #C2944E",
"~#	c #B68844",
"{#	c #917158",
"]#	c #C6BFAA",
"^#	c #D4D1BA",
"/#	c #D8D4C1",
"(#	c #8E7B66",
"_#	c #E6E5E5",
":#	c #F2F3EA",
"<#	c #E5E0C9",
"[#	c #F1EEE2",
"}#	c #C0C1B4",
"|#	c #F3F1EF",
"1#	c #AEB099",
"2#	c #ACAF99",
"3#	c #FAF9F7",
"4#	c #AEAE9B",
"5#	c #ABAB97",
"6#	c #B5B5A5",
"7#	c #DCDDD5",
"8#	c #91806D",
"9#	c #D4CCC1",
"0#	c #E1DFCE",
"a#	c #B2A490",
"b#	c #966732",
"c#	c #C2924A",
"d#	c #C59653",
"e#	c #C19D63",
"f#	c #72734E",
"g#	c #518F56",
"h#	c #3A8545",
"i#	c #2B7F3C",
"j#	c #488045",
"k#	c #A78145",
"l#	c #BC8C47",
"m#	c #85644B",
"n#	c #CCC8AF",
"o#	c #D3D1BA",
"p#	c #E0E1CE",
"q#	c #84704E",
"r#	c #E5E2E3",
"s#	c #F8F8F6",
"t#	c #E8E3D2",
"u#	c #F4F0E7",
"v#	c #CECEC3",
"w#	c #ADAE9A",
"x#	c #E2E1DA",
"y#	c #D6D5CC",
"z#	c #B0B09F",
"A#	c #E3E0DB",
"B#	c #DDDBD3",
"C#	c #A6A693",
"D#	c #EEEDE7",
"E#	c #89765B",
"F#	c #E3DFD0",
"G#	c #B4A893",
"H#	c #976A35",
"I#	c #C0914A",
"J#	c #C49755",
"K#	c #C79C5C",
"L#	c #C7A269",
"M#	c #676C45",
"N#	c #43894B",
"O#	c #318440",
"P#	c #3A8847",
"Q#	c #4D8347",
"R#	c #936F3F",
"S#	c #BF8F49",
"T#	c #BA8B46",
"U#	c #74613F",
"V#	c #CCC3AE",
"W#	c #D3D1BB",
"X#	c #857150",
"Y#	c #77564B",
"Z#	c #795A50",
"`#	c #76574C",
" $	c #6B4B41",
".$	c #6C4C43",
"+$	c #6C4D43",
"@$	c #6C4C42",
"#$	c #6D4D43",
"$$	c #6F4F45",
"%$	c #6E4F45",
"&$	c #7A5A50",
"*$	c #755340",
"=$	c #D5CDC2",
"-$	c #E3E1D1",
";$	c #9B6F3D",
">$	c #C09154",
",$	c #785E3D",
"'$	c #2E843E",
")$	c #48864A",
"!$	c #7A6944",
"~$	c #539058",
"{$	c #7D5F4E",
"]$	c #D3D2BA",
"^$	c #E9E9DA",
"/$	c #E8E8D9",
"($	c #E6E6D8",
"_$	c #BEBEB3",
":$	c #413F3B",
"<$	c #53544C",
"[$	c #54544B",
"}$	c #54544A",
"|$	c #58574D",
"1$	c #7C7A70",
"2$	c #7E7C77",
"3$	c #DBDAD1",
"4$	c #E8E8DC",
"5$	c #EBE8DC",
"6$	c #DCD8C8",
"7$	c #A3937F",
"8$	c #A27742",
"9$	c #81603F",
"0$	c #31803E",
"a$	c #2E803D",
"b$	c #368643",
"c$	c #358541",
"d$	c #398745",
"e$	c #618755",
"f$	c #2A803A",
"g$	c #726549",
"h$	c #E1E1CE",
"i$	c #DFDDD1",
"j$	c #3A3733",
"k$	c #55544C",
"l$	c #54544C",
"m$	c #5F5E55",
"n$	c #7E7D71",
"o$	c #96968E",
"p$	c #C4BAAF",
"q$	c #A5AE90",
"r$	c #80946D",
"s$	c #498A4F",
"t$	c #31843F",
"u$	c #378743",
"v$	c #368542",
"w$	c #7C5D4C",
"x$	c #E9E7DB",
"y$	c #B9B7AE",
"z$	c #43423E",
"A$	c #55544D",
"B$	c #55554D",
"C$	c #5B5B52",
"D$	c #75756A",
"E$	c #898881",
"F$	c #D5D4C9",
"G$	c #A9B093",
"H$	c #338540",
"I$	c #297D38",
"J$	c #3C8846",
"K$	c #3E8A49",
"L$	c #72664A",
"M$	c #E6E4D8",
"N$	c #44443F",
"O$	c #67675B",
"P$	c #77756B",
"Q$	c #A8A8A0",
"R$	c #A7AD90",
"S$	c #30823E",
"T$	c #434340",
"U$	c #EAEADC",
"V$	c #287C39",
"W$	c #2C803D",
"X$	c #444340",
"Y$	c #76756B",
"Z$	c #A4AC8E",
"`$	c #2D833D",
" %	c #277B37",
".%	c #267936",
"+%	c #348844",
"@%	c #328642",
"#%	c #308440",
"$%	c #2F833E",
"%%	c #328540",
"&%	c #348542",
"*%	c #767569",
"=%	c #A1A88A",
"-%	c #2A7D39",
";%	c #338743",
">%	c #328541",
",%	c #30833F",
"'%	c #398645",
")%	c #7D5C4B",
"!%	c #D4D1B7",
"~%	c #D2D1B8",
"{%	c #E1E0CD",
"]%	c #66675B",
"^%	c #A7A79F",
"/%	c #EBE8DA",
"(%	c #EAE8DA",
"_%	c #EBE7DA",
":%	c #C3B9AD",
"<%	c #9CA487",
"[%	c #2A803B",
"}%	c #338441",
"|%	c #2F823E",
"1%	c #7F563F",
"2%	c #DCC096",
"3%	c #DCC097",
"4%	c #E7DECB",
"5%	c #54534C",
"6%	c #54534B",
"7%	c #DBC1A0",
"8%	c #D9BA93",
"9%	c #B49675",
"0%	c #2D803C",
"a%	c #2E813D",
"b%	c #308340",
"c%	c #358343",
"d%	c #7F5741",
"e%	c #DBC39D",
"f%	c #DAC39C",
"g%	c #DDC6A0",
"h%	c #E7E0CE",
"i%	c #DEC9AB",
"j%	c #DCC3A0",
"k%	c #B79C80",
"l%	c #989F83",
"m%	c #2B7E3A",
"n%	c #3B8848",
"o%	c #7C5945",
"p%	c #D2C8AA",
"q%	c #D2C7AA",
"r%	c #D2CCB2",
"s%	c #DBD5BE",
"t%	c #E0D8C4",
"u%	c #E4E1D4",
"v%	c #434342",
"w%	c #E7E2D1",
"x%	c #E6DDCA",
"y%	c #E6DDC9",
"z%	c #E6DECB",
"A%	c #EBE8D9",
"B%	c #E9E2D0",
"C%	c #C2B5A3",
"D%	c #8F997B",
"E%	c #2B7E39",
"F%	c #2D7F3B",
"G%	c #31823F",
"H%	c #368343",
"I%	c #794F34",
"J%	c #CDAC79",
"K%	c #D0BF9D",
"L%	c #C9B693",
"M%	c #C2A274",
"N%	c #E0DACA",
"O%	c #555147",
"P%	c #59473B",
"Q%	c #574D43",
"R%	c #A8A69F",
"S%	c #E0CCB1",
"T%	c #D9B990",
"U%	c #DBBE98",
"V%	c #EAE3D1",
"W%	c #E5CEAC",
"X%	c #BDA58A",
"Y%	c #808C6B",
"Z%	c #348543",
"`%	c #2A7E3A",
" &	c #2E813E",
".&	c #2F813E",
"+&	c #368341",
"@&	c #7A5640",
"#&	c #D1C8AD",
"$&	c #AC9F88",
"%&	c #8D7455",
"&&	c #A39F93",
"*&	c #34302E",
"=&	c #796754",
"-&	c #BBB396",
";&	c #978872",
">&	c #584D43",
",&	c #55544B",
"'&	c #A8A79F",
")&	c #E5DBC7",
"!&	c #E2D2B9",
"~&	c #E3D4BC",
"{&	c #EBE6D6",
"]&	c #E7DBC4",
"^&	c #C0AF9C",
"/&	c #67764E",
"(&	c #2C7F3B",
"_&	c #33833F",
":&	c #7D5944",
"<&	c #D9C6A7",
"[&	c #BCAF96",
"}&	c #8B8A7D",
"|&	c #5B738D",
"1&	c #1C659C",
"2&	c #296192",
"3&	c #937F68",
"4&	c #F7F8D2",
"5&	c #E2D8AF",
"6&	c #977B59",
"7&	c #433931",
"8&	c #4E4F48",
"9&	c #54544D",
"0&	c #EBE8DB",
"a&	c #E7DBC2",
"b&	c #E6D9C1",
"c&	c #E7D9C1",
"d&	c #C0AD99",
"e&	c #5A6A3D",
"f&	c #2F823D",
"g&	c #2F7B31",
"h&	c #2F7E39",
"i&	c #7D563E",
"j&	c #C3AA85",
"k&	c #5F6674",
"l&	c #216BA5",
"m&	c #1E64A5",
"n&	c #1B62A6",
"o&	c #1E61A3",
"p&	c #686777",
"q&	c #DCD4AD",
"r&	c #DCCB9C",
"s&	c #9F896A",
"t&	c #70636C",
"u&	c #276299",
"v&	c #2A3D50",
"w&	c #504F49",
"x&	c #E3D0AE",
"y&	c #E2CEAB",
"z&	c #BCA487",
"A&	c #566938",
"B&	c #35853E",
"C&	c #317F34",
"D&	c #38833C",
"E&	c #428A45",
"F&	c #407D35",
"G&	c #7C5C49",
"H&	c #B1AC96",
"I&	c #081A29",
"J&	c #164679",
"K&	c #185398",
"L&	c #174F94",
"M&	c #5A4856",
"N&	c #DFD6B2",
"O&	c #E2CC97",
"P&	c #6B555B",
"Q&	c #294B86",
"R&	c #1F4D8E",
"S&	c #103A66",
"T&	c #04121E",
"U&	c #4E4D45",
"V&	c #67665A",
"W&	c #767468",
"X&	c #A6A69E",
"Y&	c #E9E8DB",
"Z&	c #EAE7DA",
"`&	c #E7E4D4",
" *	c #E7E4D3",
".*	c #C1B5A5",
"+*	c #4E6026",
"@*	c #34853D",
"#*	c #30833C",
"$*	c #2E8039",
"%*	c #2A7D37",
"&*	c #287C37",
"**	c #297D39",
"=*	c #2D7F3A",
"-*	c #4C7F26",
";*	c #638316",
">*	c #5C7B18",
",*	c #526C06",
"'*	c #623717",
")*	c #573823",
"!*	c #44697E",
"~*	c #527E99",
"{*	c #1A2C3C",
"]*	c #4B302E",
"^*	c #D4CDAC",
"/*	c #E4CE98",
"(*	c #614249",
"_*	c #194B8A",
":*	c #144D8F",
"<*	c #0E3665",
"[*	c #20659C",
"}*	c #0E3552",
"|*	c #583219",
"1*	c #603619",
"2*	c #61381A",
"3*	c #62391C",
"4*	c #653E25",
"5*	c #6D4831",
"6*	c #684028",
"7*	c #59580A",
"8*	c #608014",
"9*	c #678619",
"0*	c #608313",
"a*	c #2F7E37",
"b*	c #2C7E39",
"c*	c #4D842D",
"d*	c #628004",
"e*	c #627F01",
"f*	c #617F02",
"g*	c #577200",
"h*	c #577000",
"i*	c #4B5E02",
"j*	c #46697B",
"k*	c #6EA9D1",
"l*	c #6DACD6",
"m*	c #3C6482",
"n*	c #142C43",
"o*	c #0B2942",
"p*	c #0A2942",
"q*	c #1C6398",
"r*	c #2579B9",
"s*	c #1C3C51",
"t*	c #516602",
"u*	c #556C01",
"v*	c #556D01",
"w*	c #576F01",
"x*	c #5C7700",
"y*	c #628003",
"z*	c #50842F",
"A*	c #4C8532",
"B*	c #618212",
"C*	c #5F7B01",
"D*	c #465B02",
"E*	c #235378",
"F*	c #2172AC",
"G*	c #257BBE",
"H*	c #2680C5",
"I*	c #2680C4",
"J*	c #2377B6",
"K*	c #284C5E",
"L*	c #506701",
"M*	c #587201",
"N*	c #5B7601",
"O*	c #638005",
"P*	c #3E8236",
"Q*	c #2E823F",
"R*	c #2A7E39",
"S*	c #4D8532",
"T*	c #618829",
"U*	c #648313",
"V*	c #627F02",
"W*	c #618001",
"X*	c #5E7B01",
"Y*	c #445C01",
"Z*	c #2B3B00",
"`*	c #235C86",
" =	c #1F689F",
".=	c #1F689D",
"+=	c #2B5366",
"@=	c #566F02",
"#=	c #627F00",
"$=	c #668B2F",
"%=	c #34823B",
"&=	c #2A7E3B",
"*=	c #277B38",
"==	c #649240",
"-=	c #638D39",
";=	c #6B913C",
">=	c #617F01",
",=	c #617F03",
"'=	c #5E7A00",
")=	c #5A7500",
"!=	c #475C02",
"~=	c #3D5002",
"{=	c #546D03",
"]=	c #59862E",
"^=	c #47863B",
"/=	c #3F8844",
"(=	c #2A8139",
"_=	c #468B47",
":=	c #598A40",
"<=	c #57893E",
"[=	c #55883C",
"}=	c #53863A",
"|=	c #497F2F",
"1=	c #477F2E",
"2=	c #488030",
"3=	c #487F2F",
"4=	c #467D2C",
"5=	c #457B29",
"6=	c #467C2A",
"7=	c #477E2D",
"8=	c #488130",
"9=	c #498230",
"0=	c #48822F",
"a=	c #48812F",
"b=	c #46802D",
"c=	c #467F2C",
"d=	c #498130",
"e=	c #51863A",
"f=	c #33803D",
"g=	c #32813D",
"h=	c #277C38",
"i=	c #297F39",
"  . + @ # $ % & * % = = - - = ; # > > @ , = = = % - > @ ; ' # > - > > - ) ! , ~ , , ; { ~ , @ ] ",
"^ / ( $ ~ # = ! = _ / > ! ! ! , @ % % @ # = @ , > % > @ , @ > ) % = = > _ _ = , , @ # @ > > / % ",
"> > @ : ~ # , $ $ > % > $ < ! > % % % @ $ = @ # = > = = % & & - > @ @ = > % % = = [ > & } - & } ",
") > = ] , # ~ # ( > = , # , = = % - % ( @ / = , = = = > > > = > _ > > > % > > > % % % | } % - | ",
"/ _ % - / @ ~ # , $ # ~ ~ , = , > - > ( = % > 1 2 @ @ = = @ @ = = @ @ = = @ @ > > = = % % @ @ = ",
"> % - | & > # # # ~ ~ ~ ~ @ = $ 3 % ( @ ! 4 5 6 7 8 9 @ = ! ! = @ ] < , , , < % = , , @ @ , # ~ ",
"% % % -   * ] 0 a + 3 @ # = % [ [ 3 $ b c d e f g h i j & | - [ = % / @ : # = k - @ @ [ % ) [ ] ",
"- - - *   l + m a n _ = = = ! ] ] o p q r s t u v w x y   | * = @ > > @ ~ # = k ) @ @ = _ ^ . n ",
"- - - z A B C o o B _ > - % @ D p E F G H I u J K L M e N O / @ # , @ , # , = ) [ , @ @ 3 P B B ",
"= = ! ( o o Q Q Q z ^ ) R * [ 3 S T U V W u X Y Z `  ...+.@.0 $ : < @ , # @ > > 3 @ , @ 3 P #.l ",
"= > > ( o Q $.%.C z ) > ) % > 3 &.*.=.-.;.>.,.'.).!.~.{.].^./.@ @ = @ , , @ , # , @ @ = / n B A ",
"_ _ _ ! (.A A B (.. / = < = % _.:.e <.u [.}.|.1.2.3.4.~.5.6.7.8.9.! ( @ = @ $ # < = ( _ - 0.n B ",
"% = < ( a.z b.0.c.+ a.d.e.f.g.h.i.j.k.X l.m.n.o.p.q.r.s.t.u.v.w.d.x.( f.f._ y.z.A.B.e.C.y.C.0.D.",
"- @ : < E.F.G.F.x.F.f.H.I.d.J.K.L.M.N.O.P.Q.o.R.S.T.U.V.W.t.X.Y.Z.`.G. + +G.G..+ +++@+++G.H.G.#+",
"- @ : $+@+I.G.%+@+++++x.++&+*+=+-+;+>+,+'+)+!+~+{+]+^+/+(+_+:+<+[+}+|+ + +F.I.H.++I.I.++H.H. +#+",
"> @ , $+1+++G.++2+2+@+3+H.4+5+t X 6+7+8+9+0+a+b+c+d+e+f+g+h+i+j+k+l+m+n+++I.I.H.H.++++++++H.G.G.",
"@ , # ( o+H. +H.I.E.3+p+q+r+t >.s+t+u+v+w+x+y+z+A+B+C+D+E+F+G+H+I+<+J+K+L+M+H.H.H.++++I.++H.++++",
", : ~ C.G.G. +G.N+O+P+Q+R+S+T+U+V+W+X+Y+Z+`+z+z+z+z+ @.@+@@@#@$@%@&@*@=@-@;@>@H.H.++I.++++H.++I.",
",@,@e.x.H.G.G.H.'@)@!@~@{@]@^@/@(@_@:@<@[@[@}@}@}@}@|@1@2@|@3@4@5@_+j+6@7@8@9@c.d.G.++++++H.G.G.",
"0@e.E.++H.F.E.a@b@c@d@e@f@g@h@i@j@k@l@m@n@o@p@q@r@s@t@u@v@w@x@y@z@A@B@:+C@D@E@_.F@G.++++++++ +G@",
"++F.H.G.G.F@E.H@I@J@K@>.L@M@N@O@P@Q@R@S@T@U@V@W@X@Y@Z@`@ #.#e +#@###$#%#&@&#*#=#-#>@H.++I.I. +;#",
"++H. +#+#+>#,#'#)#-+!#~#{#]#^#/#(#_#:#<#[#}#|#1#2#3#4#5#6#7#8#9#y+0#a#b#c#d#6@e#f#g#h#H.++++i#.+",
"I.++G. +N+j#e k#j+X l#m#n#o#o#p#q#r#s#t#u#v#w#x#y#z#A#B#C#D#E#9#z+y+F#G#H#I#J#K#L#M#N#H.H.++H.G.",
"++++++F.O#P#Q#R#S#T#U#V#W#o#o#p#X#Y#Z#`# $.$+$@$.$#$$$%$&$&$*$=$z+z+z+-$G#;$S#>$,$y.-#H.C.++++++",
" +G.H.H.3+'$'$)$e !$~${$]$o#o#p#^$/$($_$:$<$[$}$}$|$1$2$3$4$4$b+z+z+z+5$6$7$8$9$0$a$9.C.x.++I.@+",
"++%+++I.$ b$c$d$e$9.f$g$o.o.o.h$z+z+i$j$k$l$k$k$l$l$m$n$o$z+z+z+z+z+z+z+p$q$r$s$/ > = $+,@1+@+2+",
"@+I.E.x.D 0 3 t$u$v$% w$o.o.o.h$z+x$y$z$A$B$k$l$l$l$C$D$E$F$z+z+z+z+z+z+p$G$H$% > @ @ # ~ '$1+@+",
"G.++H.I$% , = = ( J$K$L$o.o.o.h$z+M$N$l$k$A$k$k$k$l$l$O$P$Q$b+z+z+z+z+z+p$R$@ > > @ > = = f.H.++",
"#+G.H.f$) > > ( ( S$> w$o.o.o.h$z+M$T$l$k$k$k$k$k$l$l$O$P$Q$U$z+z+z+z+z+p$R$] = 3 @ = = ! y..+V$",
"W$H.C.x.9.& > @ ( + - w$o.o.o.h$z+M$X$l$k$k$A$k$k$l$l$O$Y$Q$U$z+z+z+z+z+p$Z$@ 3 3 `$= @ ( *  %.%",
"+%@%#%I.d.f$e.$ $%%%&%w$o.o.o.h$z+M$X$l$k$A$B$B$k$l$l$O$*%Q$U$z+z+z+z+z+p$=%B._ ) f$d.C.x.f.D.-%",
";%>%,%,%E.H.++N+G.3+'%)%!%~%~%{%y+M$T$l$l$l$k$k$l$l$l$]%*%^%b+z+/%(%(%_%:%<%[% +G.}%G.++I.f.D.-%",
"|%|%|%,%3+++>##+#+W$n+1%2%2%2%3%4%M$T$l$l$l$5%6%l$l$l$]%*%^%b+z+7%8%8%8%9%<%#+ +H.,%H.++I.O+-%-%",
"0%a%a%F.F.++#%b%E.%+c%d%e%f%f%g%h%M$T$l$l$l$6%6%l$l$l$]%*%^%b+z+i%j%j%j%k%l% +#+ +H.H.H.N+-%m%0%",
"m%0%a%N+G.H.I.n%3+H.>#o%p%q%r%s%t%u%v%l$l$l$5%6%l$l$l$]%*%^%w%x%y%z%A%B%C%D%E. +#+ +++++H.N+a%|%",
"E%F%a%N+O+O+++E.G%O+H%I%J%J%K%L%M%N%v%O%P%Q%l$l$l$l$l$]%*%R%S%T%T%U%V%W%X%Y%Z%O+`%d.x.I.E. &.&|%",
"(.O a%0%G.N+3+F. +O++&@&K%K%#&$&%&&&*&=&-&;&>&,&l$l$l$O$*%'&)&!&!&~&{&]&^&/&.&a.C.$%x.F.N+(&(&m%",
"O Q Q 0.N+H.3+H.#+n _&:&<&[&}&|&1&1&2&3&4&5&6&7&8&9&l$O$*%^%b+z+0&a&b&c&d&e&( _ 0.f&n . (&0.(&`%",
"C C C a.N+H.++G.A.g&h&i&j&k&l&m&n&o&p&q&r&s&t&u&v&w&l$O$*%^%b+z+/%x&y&y&z&A&B&[ . B A l A c.F. +",
"B A l I$A. +G.C&D&E&F&G&H&I&J&K&L&M&N&O&P&Q&R&S&T&U&6%V&W&X&Y&Z&Z&`& * *.*+*@*#*$*A l %*%*0.F.G.",
"l l %*&***#+=*-*;*>*,*'*)*!*~*{*]*^*/*(*_*:*<*[*}*|*1*2*3*4*5*5*5*5*5*5*6*7*8*9*0*a*A A B O C.H.",
"l b*b*I$#+ +c*d*e*f*g*h*i*j*k*l*m*n*n*o*p*p*q*r*s*t*u*u*u*u*u*u*u*u*u*v*w*x*e*e*y*z*B Q f&c.C.++",
"D.. (.) d.9.A*B*e*e*e*e*C*D*E*F*G*H*H*H*H*I*J*K*L*M*M*M*M*M*M*M*M*M*M*N*e*e*e*e*O*P*a.0.0.N+F.Q*",
" %G@R*d._ ) k S*T*U*V*e*W*X*Y*Z*`* = = = =.=+=@=e*e*e*e*e*e*e*e*e*e*e*e*e*e*#=$=%=O+O+d.N+ +&=&=",
";#*=A.f.! % & & ) ==-=;=>=,='=)=!=~=~=~=~=~={=e*e*e*e*e*e*e*W*e*e*e*e*e*e*]=^=/=H. +.+#+G. +#+.+",
"3+I.I.e.$+@ % (=% f.H._=:=<=[=}=|=1=2=2=3=4=5=5=6=7=8=8=9=9=0=a=b=c=d=e=f=g=G. +#+G@;#.+ +G.H.H.",
"@+I.++x.! > % % _ f.f.G.W$++++N+ +G.++@+++.+;#h=`%G.H.x.'$< , , `$9.H.++G.W$H.G. +#+#+&= +G.W$%+",
"++H. +d.i=| - % > d.y. +H.@+@+++G.G.++@+Q*#+.+ +++H. +C.! _ , # , C.++++G.H.E.H.G.G.H.G.G.#+ +G."};
